<svg width="120" height="40" xmlns="http://www.w3.org/2000/svg"><g fill-rule="evenodd" stroke-width="37"><path fill="#edefee" d="M96.376 11.811v3.271h.724v-1.674l.222-.222.222-.222.128.169a48.029 48.029 0 0 1 1.243 1.79c.09.158.092.16.488.16.516 0 .518-.013.1-.586-.444-.608-1.261-1.797-1.332-1.937-.067-.136-.008-.22.783-1.095.665-.737.669-.744.34-.782-.464-.054-.567.035-1.708 1.472-.482.608-.472.643-.48-1.746L97.1 8.602h-.253c-.14-.001-.303-.015-.363-.032l-.108-.03v3.271M85.329 8.884c-.16.035-.16.053-.161 3.187v2.946l1.239.032c.682.018 1.421.033 1.642.033h.403V14.5l-1.228-.045c-.675-.025-1.246-.064-1.268-.087-.022-.023-.051-1.239-.064-2.702-.017-1.817-.041-2.677-.077-2.714-.06-.063-.336-.102-.486-.068m-24.004.039c-.027.01-.13.034-.23.051l-.18.031v6.063l.712.033c2.68.127 4.01-.838 4.104-2.98.07-1.588-.456-2.528-1.69-3.025l-.397-.16-1.136-.017c-.624-.009-1.157-.008-1.183.004m5.551.148c-.192.197-.21.356-.061.55.212.278.598.266.743-.024.253-.504-.295-.926-.682-.526m22.54-.024c-.423.435.182 1.06.619.64.257-.248.033-.786-.327-.786-.103 0-.197.046-.293.146m-8.643.456c-.145.053-.27.096-.277.096-.008 0-.015.185-.015.411-.001.62-.002.623-.366.663l-.31.034v.237c0 .26.062.3.465.3.199 0 .167-.242.21 1.57.039 1.68.054 1.771.348 2.054.45.433 1.46.382 1.432-.072l-.015-.237-.369-.03c-.425-.037-.45-.048-.554-.255-.138-.276-.225-2.534-.11-2.873l.052-.157h1.001l.03-.17c.061-.332.043-.35-.437-.394-.735-.07-.698-.03-.699-.738 0-.535-.03-.568-.386-.439m-17.53.023c2.389.519 2.382 4.423-.009 4.913-.402.083-1.433.094-1.535.017-.104-.08-.131-4.753-.027-4.86.148-.153 1.01-.192 1.57-.07m7.432 1.067c-.403.048-.67.24-.976.701-.105.158-.16.087-.2-.256-.037-.333-.047-.342-.356-.342h-.27l.031 1.279c.018.704.032 1.69.032 2.193v.914h.666l.018-1.383.017-1.383.151-.33c.208-.454.437-.618.996-.715l.181-.031v-.347a2.3 2.3 0 0 0-.012-.34 3.852 3.852 0 0 1-.278.04m22.49.02a2.1 2.1 0 0 0-.752.44c-.28.242-.335.242-.335-.004 0-.327-.025-.353-.342-.353-.364 0-.338-.195-.297 2.293l.035 2.068.345.015.344.014.03-1.235c.048-1.938.048-1.932.172-2.12.313-.47.929-.663 1.388-.433.46.23.506.42.542 2.237l.03 1.473.38.014.38.015-.025-1.51c-.032-1.93-.078-2.145-.563-2.594-.334-.31-.935-.454-1.332-.32m-20.47.102c-1.521.646-1.758 3.21-.378 4.116.565.371 2.153.416 2.489.07.067-.069.063-.381-.006-.462-.01-.011-.26.02-.556.07-1.081.178-1.735-.115-2.022-.907-.219-.603-.266-.583 1.433-.613 1.608-.029 1.491.01 1.482-.498-.024-1.427-1.218-2.296-2.441-1.776m4.673-.017c-2.345.858-1.816 4.434.656 4.434.938 0 1.357-.232 1.069-.593-.082-.102-.1-.104-.483-.046-1.249.19-2.056-.514-1.982-1.731.07-1.164.985-1.758 2.292-1.49.285.06.355-.47.077-.583-.274-.114-1.31-.108-1.63.009m12.174-.008c-.111.024-.152.066-.176.18-.042.205-.05 2.48-.01 3.407l.032.755h.713l-.014-2.122c-.017-2.475.016-2.344-.545-2.22m-22.7.039c-.017.018-.032.99-.032 2.161v2.129l.254.031c.14.017.302.032.362.032h.109v-4.386h-.33c-.182 0-.345.014-.363.033m6.915.443c.334.144.591.486.663.88.072.398.098.388-1.063.388-1.302 0-1.32-.009-1.091-.53.286-.65.942-.975 1.49-.738m24.2 7.383c-.018.018-.032 2.789-.032 6.156v6.124h2.029V18.522h-.982c-.54 0-.997.015-1.015.033m-3.72.344c-1.164.382-.915 2.16.304 2.174.763.01 1.18-.383 1.176-1.108-.004-.824-.696-1.322-1.48-1.066m-30.107.156c-.31.022-1.367.16-1.51.197l-.109.028V30.82l.733.033c.403.018.846.032.986.032h.253l.017-2.164c.009-1.19.027-2.176.04-2.19.014-.013.464-.038 1.001-.056 2.101-.067 3.28-.582 4.028-1.759 1.22-1.92.428-4.628-1.557-5.328-.816-.287-2.49-.43-3.882-.332m-9.204.062-.41.028-.202.623a97.908 101.02 0 0 0-.475 1.52 128.715 132.807 0 0 1-.313 1.022c-.11.337-.527 1.681-.967 3.116a447.672 461.902 0 0 1-.749 2.418c-.646 2.052-.908 2.943-.874 2.978.127.131 2.106.024 2.106-.115 0-.064.174-.668.683-2.365a6.53 6.53 0 0 0 .137-.522c.046-.265.112-.275 1.886-.27 2.138.006 1.845-.19 2.37 1.59a177.878 183.533 0 0 0 .425 1.425l.08.255.792.032c1.33.054 1.357.053 1.357-.086 0-.1-.435-1.535-.963-3.172-.075-.233-.26-.827-.412-1.32-.153-.494-.447-1.436-.655-2.094l-.895-2.842-.614-1.956-.098-.312-.899.01c-.494.004-1.084.022-1.31.037m17.369-.001-.29.029v11.664l1.002.014 1.003.013.003-1.857c.003-2.37-.03-2.19.524-2.875.518-.641.533-.646.76-.267l.596 1.01a50.666 52.277 0 0 0 .585.972c.087.137.396.653.686 1.146a95.138 98.162 0 0 0 .845 1.408l.315.511h.953c1.415 0 1.427-.005 1.094-.531a414.07 414.07 0 0 1-1.844-2.983c-.269-.439-.776-1.264-1.128-1.834-.851-1.381-.83-1.331-.688-1.607.062-.12.464-.663.893-1.206 1.812-2.288 2.735-3.488 2.735-3.554 0-.054-1.706-.102-2.1-.06l-.335.036-.274.374a429.963 443.63 0 0 0-2.293 3.19c-.183.26-.517.754-.74 1.097-.623.956-.586 1.097-.586-2.231l-.001-2.505-.713.008c-.392.005-.843.022-1.002.038m14.3.003-1.16.026-.011 5.845-.013 5.845h2.03v-2.012c0-1.106.014-2.216.031-2.467l.032-.456h1.236c.68 0 1.612-.015 2.07-.033l.834-.033v-1.68h-4.105l-.036-.136c-.049-.181-.049-3.083 0-3.134.03-.03 2.203-.091 4.129-.115l.302-.004V19.07l-2.09.011c-1.149.006-2.611.023-3.249.038m-20.09 1.598c1.826.306 2.205 3.026.532 3.814-.713.336-1.976.456-2.39.228-.164-.091-.231-3.835-.071-4 .128-.133 1.246-.157 1.93-.042m-10.647.385c.04.13.109.393.154.585.1.422.296 1.09.802 2.749.21.689.382 1.3.382 1.358 0 .109-2.675.172-2.835.067-.042-.028-.02-.15.081-.46.077-.233.22-.693.32-1.022.374-1.232.427-1.425.671-2.418.273-1.11.27-1.096.315-1.096.022 0 .071.106.11.237m49.597 1.116c-4.321.34-5.122 7.198-1.008 8.624l.458.158 1.135.004c1.246.005 1.569-.034 2.307-.279.537-.178.506-.133.422-.617-.165-.958-.186-.979-.804-.822-2.144.546-3.87-.097-4.168-1.553-.102-.5-.327-.459 2.702-.488 2.06-.02 2.643-.039 2.691-.09.118-.12.113-1.559-.007-2.054-.483-2.002-1.816-3.033-3.728-2.883m-11.565.184-.29.033-.013 4.2-.012 4.2h2.078V26.65c0-2.584-.017-4.195-.046-4.213-.07-.045-1.39-.071-1.717-.035m12.53 1.397c.599.323 1.09 1.264.953 1.826l-.03.126-1.775-.013-1.774-.013.001-.25c.008-1.24 1.575-2.241 2.624-1.676"/><path fill="#34da83" d="M12.144 7.795c-.556.124-.58.603-.074 1.533a1622.294 1673.864 0 0 1 2.592 4.807c.08.15.176.325.213.387.107.176.03.247-.78.728-2.439 1.445-4.314 3.066-5.921 5.116-2.375 3.03-3.924 7.239-3.872 10.518l.014.872.144.073c.164.084 40.897.119 40.978.035.303-.314-.43-4.818-.999-6.14a33.894 33.894 0 0 1-.242-.622c-1.529-4.003-4.631-7.613-8.526-9.922-.83-.491-.806-.32-.196-1.444 2.517-4.637 2.743-5.075 2.747-5.332.004-.296-.13-.48-.385-.53-.435-.084-.555.055-1.371 1.6a1724.218 1779.028 0 0 1-1.135 2.144c-.248.466-.658 1.24-.91 1.72-.253.48-.492.879-.53.887-.039.009-.412-.121-.83-.288-5.402-2.156-11.308-2.076-16.778.227-.286.12-.221.216-1.486-2.172-1.916-3.618-2.047-3.86-2.159-4.001-.115-.145-.334-.232-.494-.196m84.51.793c.086.011.227.011.314 0 .086-.01.015-.02-.158-.02-.172 0-.243.01-.156.02m-35.393.306c-.061.017.254.026.7.018 1.134-.02 1.266-.044.257-.048-.464-.002-.895.012-.957.03m5.714.014a.475.475 0 0 0-.163.158c-.062.104-.059.104.06-.009a.757.78 0 0 1 .283-.156c.13-.032.137-.04.04-.041a.581.6 0 0 0-.22.048m18.748-.011c.06.024.108.104.126.208l.03.17.007-.182c.006-.176-.055-.247-.203-.238-.031.002-.013.02.04.042m3.7.083c-.082.071-.15.151-.15.178 0 .026.05-.011.11-.084a.61.61 0 0 1 .278-.172c.148-.036.153-.041.039-.046-.074-.003-.192.05-.278.124m-26.104-.044c.06.012.147.012.193 0 .047-.013-.003-.023-.109-.022-.106 0-.144.01-.084.022m26.66.08c.077.07.144.193.166.311.035.187.037.19.042.04.006-.157-.188-.466-.291-.466-.026 0 .011.052.083.115m-29.09 2.627c0 1.466.006 2.066.014 1.333s.007-1.933 0-2.667-.014-.133-.014 1.334m3.364-2.477c.104.083.382.222.382.191 0-.021-.077-.076-.17-.123-.152-.074-.267-.111-.212-.068m3.384.169c-.012.196-.122.377-.271.443-.08.037-.117.067-.083.068.192.006.42-.302.381-.512l-.02-.109-.007.11m21.613.09c.021.197.198.423.33.423.031 0-.012-.044-.097-.097-.112-.07-.167-.153-.204-.311l-.05-.215.02.2m-24.542.011c.027.027.147.136.266.241l.218.192-.17-.189a1.431 1.431 0 0 0-.265-.24c-.055-.03-.076-.031-.049-.004m16.39.017c.04.042.062.23.064.517.002.248.023.496.045.551.05.12.056-.785.006-.968-.018-.067-.064-.131-.104-.144-.057-.018-.059-.01-.01.044m-18.963.032c.073.011.193.011.266 0s.013-.02-.133-.02c-.147 0-.206.009-.133.02m18.468.041c-.121.06-.125.067-.025.042.137-.035.291-.116.218-.115a.76.76 0 0 0-.193.073m-13.89.019c0 .085.242.304.333.3.054-.002.047-.016-.025-.046a.647.647 0 0 1-.205-.178c-.057-.074-.103-.109-.103-.076m-2.916.202a3.261 3.365 0 0 1 .556.381l.258.23-.259-.257c-.254-.252-.493-.407-.732-.473-.066-.019.013.034.177.119m-2.184 2.07c0 1.097.007 1.538.015.981.007-.556.007-1.454 0-1.994-.008-.54-.015-.083-.015 1.013m18.827-1.549a.546.546 0 0 1-.086.287c-.073.082-.073.09-.003.09.087 0 .153-.257.117-.454-.014-.078-.024-.051-.028.077m5.475 1.823c0 1.056.006 1.488.014.96s.008-1.392 0-1.92c-.008-.527-.014-.095-.014.96m-15.301-1.51c.06.012.157.012.217 0s.011-.021-.109-.021c-.119 0-.168.01-.108.021m2.56.001a2.772 2.86 0 0 0 .411 0c.113-.01.02-.018-.205-.018-.226 0-.319.008-.205.018m4.736 0c.14.01.358.01.483 0s.01-.018-.255-.018c-.266 0-.369.009-.228.019m-5.328.131c-.133.064-.34.212-.46.328l-.217.21.249-.207a2.58 2.661 0 0 1 .531-.327c.156-.066.25-.12.21-.12-.04 0-.18.052-.313.116m-5.774-.03c0 .02.104.03.23.022.397-.025.434-.046.096-.054-.179-.003-.326.01-.326.032m2.366.007c.284.032.323.08.336.428.006.185.072.299.144.253.038-.024.032-.057-.019-.11-.04-.041-.073-.162-.073-.267 0-.27-.096-.35-.402-.341l-.25.008.264.03m12.793-.01c.06.01.147.01.193-.002.046-.013-.003-.022-.109-.022-.106.001-.144.011-.084.023m7.433.006c-.014.022.04.03.118.019.078-.012.142-.03.142-.041 0-.038-.236-.018-.26.022m.56.021a.339.339 0 0 1 .101.162c.015.064.025.04.028-.062.005-.136-.012-.162-.1-.162-.094 0-.097.007-.028.062m1.669-.026c.087.011.217.01.29 0 .072-.012.001-.021-.158-.02-.16 0-.219.009-.132.02m1.05.109c-.133.079-.307.218-.387.308l-.145.164.208-.172a4.288 4.424 0 0 1 .434-.307c.126-.075.206-.136.18-.137-.027 0-.157.065-.29.144m5.94.067c-.106.116-.247.28-.313.363-.065.083.01.01.17-.164.16-.174.355-.335.435-.36.138-.04.14-.043.022-.047-.085-.003-.181.06-.314.208m-21.675-.018c-.122.08-.238.175-.26.212-.021.039.002.032.055-.016.052-.045.202-.14.335-.21.132-.07.208-.128.166-.129-.041 0-.174.064-.296.143m2.177-.082c.043.056.056.145.036.25-.021.114-.016.14.018.086.074-.116.057-.28-.036-.355-.076-.062-.078-.06-.018.019m6.018 1.483c0 .863.007 1.217.015.785.008-.432.008-1.138 0-1.57-.008-.432-.015-.079-.015.785m-15.238-1.304c-.107.105-.195.222-.195.258s.007.056.016.045c.009-.012.11-.128.223-.258.25-.285.226-.31-.044-.045m4.37-.158c.149.148.475.375.378.263a1.273 1.314 0 0 0-.266-.216c-.088-.052-.138-.073-.112-.047m20.299.218c.11.122.234.29.276.371.041.083.076.128.077.1.002-.11-.225-.445-.384-.565-.169-.127-.168-.126.03.094m-12.246-.069a.86.887 0 0 1-.039.2c-.023.07-.017.078.028.035.033-.031.05-.12.039-.2-.015-.1-.023-.11-.028-.035m16.78.378c-.69.744-.815.885-.787.885.016 0 .273-.27.571-.598.298-.33.534-.598.524-.598-.01 0-.15.14-.308.311m-1.985.337c0 .342.008.483.017.311.01-.171.01-.452 0-.623-.01-.171-.017-.031-.017.312m-24.163-.474c-.086.039-.157.081-.157.095 0 .014.075-.008.168-.047.363-.157.816-.06 1.137.241l.169.16-.145-.168c-.28-.325-.798-.449-1.172-.281m18.408 1.57c-.001.919.014 1.805.034 1.97.047.392.05-2.534.004-3.166-.024-.316-.036.08-.038 1.196m-13.31-1.508c.112.01.297.01.41 0 .113-.01.02-.02-.206-.02-.225 0-.318.01-.205.02m14.975.005c-.048.02.087.035.3.034.213 0 .35-.016.304-.035-.108-.045-.494-.044-.604.001m-18.176.158c.042.082.086.15.1.15.013 0-.01-.068-.051-.15s-.086-.15-.1-.15c-.013 0 .01.067.051.15m-2.297.087-.167.187.181-.172c.17-.16.204-.202.167-.202-.008 0-.09.084-.181.187m8.64-.038c-.049.168-.044 1.273.008 2.057.043.65.125.922.293.973.053.017.05.005-.01-.045-.18-.15-.205-.337-.23-1.738-.015-.754-.042-1.315-.062-1.247m-4.927.038c-.073.086-.221.36-.168.31.044-.04.274-.397.257-.397a.392.392 0 0 0-.089.087m-10.504.386c0 .247.008.354.018.238.01-.115.01-.317 0-.448s-.018-.037-.018.21m32.228-.262-.142.162.157-.146c.147-.136.18-.178.142-.178-.008 0-.079.073-.157.162m-33.003.262c0 .192.01.264.02.161a1.803 1.86 0 0 0 0-.35c-.012-.088-.02-.003-.02.19m15.464.423c0 .397.007.56.016.361s.01-.524 0-.723c-.009-.198-.016-.036-.016.362m-8.186-.387a1.07 1.07 0 0 0-.09.362c.002.117.016.096.063-.1.032-.137.086-.3.118-.361.032-.062.046-.112.03-.112-.015 0-.07.095-.12.211m20.08-.169c-.055.09-.13.33-.09.282.053-.064.162-.324.135-.324-.011 0-.032.019-.046.042m5.173.431c-.18.206-.308.374-.283.374.024 0 .18-.168.344-.374.165-.205.293-.374.284-.374-.01 0-.164.169-.345.374m-27.812-.015c-.039.106-.065.53-.074 1.187l-.014 1.021.04-.922c.021-.507.064-1.032.093-1.165.065-.288.04-.354-.045-.12m4.698.039c0 .096.01.135.022.087a.421.421 0 0 0 0-.174c-.012-.048-.022-.009-.022.087m20.631.05c0 .123.01.174.021.112a.727.727 0 0 0 0-.224c-.011-.062-.02-.012-.02.112m-19.898.257c.002.21.02.371.04.358.043-.027.038-.38-.009-.59-.021-.097-.032-.014-.03.232m-6.235.665c0 .439.008.612.017.384.009-.228.009-.586 0-.798-.01-.21-.017-.024-.017.414m3.882-.735c.299.009.788.009 1.087 0 .3-.01.054-.016-.544-.016-.597 0-.842.007-.543.016m3.067.212c0 .096.01.135.022.087a.421.421 0 0 0 0-.174c-.012-.049-.022-.01-.022.087m.778.224c0 .192.009.264.019.16a1.8 1.858 0 0 0 0-.348c-.011-.088-.02-.004-.02.188m17.64.748c0 .548.006.78.015.513a19.05 19.05 0 0 0 0-.997c-.008-.282-.016-.065-.016.484m-18.416-.524c0 .096.01.135.022.088a.421.421 0 0 0 0-.175c-.012-.048-.022-.009-.022.087m21.45.114-.204.214.01.546.008.547.028-.558c.027-.554.028-.56.194-.736.21-.224.185-.233.455.147.127.179.243.324.257.324.015 0-.027-.072-.091-.161-.464-.642-.389-.605-.657-.323m-25.149-.13c-.045.046-.034.27.018.39.032.071.036.046.016-.088-.018-.116-.006-.215.03-.261.059-.072 0-.109-.064-.041m-7.768.628c-.122.143-.36.345-.53.448-.392.238-.33.245.08.009.268-.155.378-.265.664-.658.11-.15-.01-.039-.214.2m.896.023a3.629 3.629 0 0 1-.38.51c-.19.21-.21.246-.09.16.22-.158.69-.823.626-.889-.01-.011-.081.087-.156.219m32.95.266c.272.393.37.478.122.107a2.472 2.472 0 0 0-.26-.347c-.028-.017.034.09.138.24m.906.01.441.606c.177.244.323.425.323.403 0-.05-.817-1.171-.854-1.171-.015 0 .026.073.09.162m-18.647.087c0 .096.01.136.022.087a.421.421 0 0 0 0-.174c-.012-.048-.022-.009-.022.087m-7.934.075c.09.096.174.175.187.175.014 0-.05-.08-.14-.175a1.08 1.08 0 0 0-.187-.175c-.013 0 .05.08.14.175m4.537-.01c.12.139.466.335.587.333.038 0-.023-.044-.136-.097a2.588 2.67 0 0 1-.387-.234l-.18-.138.116.135m-.911.028c.116.253.69.806.837.806.029 0-.057-.077-.19-.17a2.415 2.415 0 0 1-.615-.63c-.082-.117-.084-.117-.032-.006m-14.539.118c-.004.09.027.154.09.19.055.03.097.032.097.006 0-.025-.03-.058-.069-.073-.038-.015-.078-.08-.09-.143-.019-.103-.022-.102-.028.02m1.637.09c-.098.031-.102.04-.025.04.054.002.14-.017.194-.04.123-.055-.004-.055-.17 0m11.185.052c-.067.03-.038.035.096.014a.967.967 0 0 0 .214-.048c.041-.038-.217-.01-.31.034m11.68-.018a.393.393 0 0 0 .169 0c.046-.013.008-.023-.085-.023s-.131.01-.084.023m-14.182.168c.086.095.227.213.314.261.153.086.154.086.038 0a6.011 6.203 0 0 1-.314-.262l-.193-.173.155.174m7.138-.041c.237.35 0 .51-.868.586l-.483.043.532-.018c.53-.019.808-.08.938-.204.086-.082-.003-.442-.12-.488-.066-.026-.066-.018 0 .08m1.43-.096c-.02.413.823.874 1.35.74.141-.036.108-.043-.193-.043-.545 0-.868-.175-1.078-.587-.043-.082-.078-.132-.079-.11m7.018.022c.18.01.463.01.628 0 .165-.01.017-.017-.328-.017-.346 0-.481.008-.3.017m11.145.175c.082.13.161.237.174.237.038 0-.062-.163-.199-.324-.107-.127-.103-.114.025.087m-25.11-.076c.073.01.193.01.266 0s.013-.021-.133-.021c-.146 0-.206.01-.133.02m1.27.096c.028.156-.065.318-.182.318-.03 0-.041.012-.027.026.138.143.325-.185.228-.4-.035-.078-.039-.065-.018.056m-11.284.292c-.146.044-.178.066-.096.067a.953.953 0 0 0 .29-.067c.214-.085.092-.085-.194 0m3.322.11a.51.51 0 0 0 .194 0c.046-.013-.003-.022-.11-.022-.106 0-.144.01-.084.023m7.535-.005c-.017.017-.297.05-.624.071l-.594.04.58-.016c.465-.012 1.056-.11.744-.122-.042-.002-.09.01-.106.027m11.189.007c.233.009.603.009.82 0 .219-.01.027-.017-.424-.017-.452 0-.63.007-.396.017m3.936 0a2.418 2.494 0 0 0 .386-.002c.1-.01.006-.019-.206-.019-.213 0-.294.01-.18.02m4.976 0a2.418 2.494 0 0 0 .387 0c.098-.011.006-.02-.207-.02s-.293.01-.18.02m-33.288.05c.114.01.288.01.387 0 .099-.011.006-.02-.207-.02-.212 0-.293.01-.18.02m36.741 3.355-.109.044.011 1.635.012 1.634.025-1.62.025-1.62 1.015-.025c.707-.018.943-.036.778-.062-.326-.052-1.624-.042-1.757.014m-3.853.416c-.178.08-.444.307-.51.436-.028.052.047-.005.166-.128.14-.145.297-.248.45-.296.128-.04.189-.075.136-.076a.72.72 0 0 0-.242.064m5.831 5.95-.009 5.992-1.015.015-1.014.015 1.026-.001 1.027-.002.03-.972c.04-1.292.037-7.719-.003-9.57-.02-.918-.036.784-.042 4.522m-35.128-5.85c.01.01.324.033.696.05.46.023.653.018.604-.017-.065-.045-1.35-.078-1.3-.033m-10.334.14c-.032.034-.058.083-.058.11 0 .027.027.012.06-.033.046-.062.157-.087.448-.1l.386-.016-.389-.01c-.25-.006-.41.012-.447.05m8.916-.025c.06.012.158.012.218 0s.01-.021-.109-.021-.168.01-.109.021m3.636.042c.455.082.582.08.265-.003a2.05 2.05 0 0 0-.434-.064c-.142 0-.096.018.169.067m5.133-.041c.073.011.193.011.266 0s.013-.021-.133-.021c-.146 0-.206.01-.133.02m5.62.104-.093.135.118-.109c.082-.077.195-.114.382-.128l.266-.018-.29-.008c-.264-.007-.298.004-.383.128m1.675-.105a.384.384 0 0 0 .17 0c.046-.012.008-.022-.085-.022s-.131.01-.085.022m6.665.003c.284.009.762.009 1.063 0s.068-.016-.517-.016-.83.007-.546.016m-23.091.047a.384.384 0 0 0 .169 0c.047-.012.008-.022-.084-.022-.093 0-.131.01-.085.022m17.284.009c0 .023-.078.152-.173.286l-.173.244.195-.224c.173-.197.249-.35.175-.35-.013 0-.024.02-.024.044m5.008 1.714c-.038 2.13-.031 6.792.014 8.636.022.896.04-.618.054-4.523.011-3.229.008-5.87-.008-5.87-.015 0-.042.79-.06 1.757M57.222 19.37a.941.941 0 0 0 .077.2c.03.052.035.036.012-.05a.878.906 0 0 0-.077-.2c-.03-.052-.035-.036-.012.05m36.26.257c-.03.086-.05.26-.047.386.007.224.008.222.043-.07.02-.164.051-.338.07-.386.02-.048.025-.087.011-.087-.013 0-.048.07-.077.157m2.237.366c0 .36.004.379.044.192a.915.944 0 0 0 0-.399c-.04-.168-.045-.142-.044.207m-15.847-.162c-.211.252-.274.337-.25.337.014 0 .106-.101.204-.225.182-.228.217-.316.046-.112m-10.789.242c.175.175.39.409.476.519.087.109.134.15.104.089-.075-.154-.567-.694-.747-.821-.083-.058-.008.037.167.213m-11.688-.18c0 .028.03.129.065.225.036.096.066.14.066.1.001-.042-.028-.142-.065-.225s-.066-.127-.066-.1m21.993.56c-.102.128-.16.218-.13.198.066-.042.372-.433.34-.433a1.51 1.51 0 0 0-.21.234m-25.378.119c-.033.113-.05.214-.04.225.011.011.047-.072.08-.184.032-.113.05-.214.039-.225-.011-.011-.046.071-.08.184m-37.838.116c1.326.7 1.355 2.564.05 3.246-1.107.579-2.436-.217-2.498-1.497-.067-1.355 1.32-2.345 2.448-1.75m18.786 0c1.678.79 1.188 3.423-.638 3.428a1.83 1.888 0 0 1-1.516-.836c-.944-1.47.596-3.325 2.154-2.591m41.777.013c-.075.1-.111.167-.08.148.061-.04.27-.331.236-.331a.935.935 0 0 0-.156.183m16.888-.068c0 .009.07.082.157.162l.157.146-.142-.162c-.132-.15-.172-.185-.172-.146m1.763.167c-.106.099-.15.156-.096.128.09-.048.356-.313.31-.309a1.762 1.762 0 0 0-.214.181m-30.739-.081c-.06.024-.108.059-.108.077 0 .017.038.015.084-.005.047-.02.15-.054.23-.075.131-.035.133-.039.024-.04a.71.733 0 0 0-.23.043m2.066.087c.333.117.524.22.73.393l.163.136-.118-.136c-.141-.162-.632-.42-.872-.458-.12-.02-.091 0 .097.065m22.465.013c-1.792.037-1.69.032-1.69.088 0 .023.113.025.253.004.14-.02 1.112-.04 2.162-.041 1.142-.003 1.937-.024 1.98-.053.08-.053-.034-.053-2.705.002m-33.444.11c.026.034.074.148.107.252.033.105.068.182.078.17.036-.036-.134-.484-.184-.484-.033 0-.034.02-.001.062m20.638.274c-.115.158-.176.26-.137.227.082-.068.4-.514.367-.514-.012 0-.116.13-.23.287m-22.578.092c-.047.153-.076.287-.066.298.011.011.058-.105.105-.258.046-.153.076-.287.065-.298-.01-.01-.058.106-.104.258m40.988-.229c-.165.036-.165.037-.024.04a.681.681 0 0 0 .242-.04c.116-.051.02-.051-.218 0m-30.27 1.396c0 .781.006 1.1.014.71.009-.39.009-1.03 0-1.42-.008-.391-.014-.072-.014.71m22.948-.175c0 .686.007.973.015.639.008-.335.008-.895 0-1.247-.008-.35-.015-.077-.015.608m-17.58-1.071a.932.932 0 0 0 .078.199c.03.052.035.037.012-.05a.902.93 0 0 0-.077-.2c-.03-.051-.035-.036-.012.05m4.137 1.371c-.013 2.152-.016 2.144.516 1.309.438-.687.407-.695-.048-.012-.192.288-.361.51-.377.494-.016-.016-.04-.762-.055-1.658l-.027-1.628-.009 1.495m-18.53-.863c-.072.304-.123.562-.112.573.01.012.08-.228.152-.532s.124-.562.113-.574c-.011-.011-.08.229-.152.533m16.464 2.982c0 1.96.006 2.762.014 1.782.007-.98.007-2.584 0-3.564-.008-.98-.014-.179-.014 1.782m4.084-3.04c-.057.081-.092.149-.079.149a.56.56 0 0 0 .127-.15c.057-.082.093-.15.08-.15a.56.56 0 0 0-.128.15m-18.11-.075c0 .028.03.129.065.225.036.096.066.14.067.1 0-.042-.028-.143-.065-.225s-.067-.127-.067-.1m19.7 1.11c-.856 1.085-.836 1.059-.804 1.059.013 0 .293-.342.622-.76.802-1.02.965-1.234.94-1.234-.011 0-.353.42-.758.934m-7.521-.585c0 .096.01.135.022.087a.406.42 0 0 0 0-.175c-.012-.047-.022-.008-.022.088m-13.97.17c-.007.073.256.945.27.897.008-.025-.048-.247-.125-.494s-.142-.428-.144-.404m37.643.116c.073.011.193.011.266 0s.013-.021-.133-.021-.206.01-.133.02m1.39-.007c.171.04.482.046.482.01 0-.02-.125-.035-.278-.032-.152.003-.245.013-.205.022m-27.088.321c0 .178.009.251.02.162a1.538 1.587 0 0 0 0-.324c-.011-.09-.02-.016-.02.162m2.074-.125c0 .11.01.149.022.087a.56.56 0 0 0 0-.2c-.013-.047-.022.004-.022.113m37.096-.106c.05.046.334.181.334.159 0-.029-.267-.177-.32-.177-.018 0-.025.008-.014.018m-3.434.184a1.86 1.86 0 0 0-.338.233c-.066.075-.065.077.01.019.045-.035.219-.14.386-.233.168-.093.283-.17.256-.17-.026 0-.168.068-.314.151m-28.49.01c-.21.282-.32.45-.28.425.058-.036.379-.488.347-.488-.012 0-.042.028-.068.063m-16.964.286c0 .041.04.187.09.324.048.137.088.216.088.175 0-.042-.04-.187-.089-.324-.049-.137-.089-.216-.089-.175m44.651.362c-.315.332-.544.64-.688.922-.118.231-.006.1.17-.2.101-.17.345-.484.542-.697.197-.213.35-.387.338-.387-.01 0-.173.163-.362.362m-9.464 2.405c0 1.398.006 1.977.014 1.287a134.254 138.521 0 0 0 0-2.542c-.008-.708-.014-.144-.014 1.255m-25.685-2.129a2.049 2.049 0 0 1-.789.863c-.133.079-.22.143-.193.143.317 0 1.213-.99 1.126-1.247-.008-.024-.073.085-.144.241m37.082.182a2.043 2.043 0 0 0-.749.646c-.079.124-.068.118.054-.03.228-.277.6-.54.91-.642.163-.054.226-.09.154-.09-.067 0-.232.052-.369.116m1.142-.054c.12.036.288.103.374.15.087.046.157.072.157.059 0-.054-.376-.22-.558-.247l-.19-.029.217.067m2.667.215c.088.169.166.3.175.29.026-.026-.129-.336-.236-.473-.054-.069-.026.014.061.183m-52.181-.183c0 .04.019.12.041.174.027.063.042.072.042.025a.57.57 0 0 0-.042-.174c-.026-.063-.041-.072-.041-.025m-3.626.253c-.033.113-.05.214-.04.226.011.01.047-.072.08-.185.032-.112.05-.213.04-.224-.012-.012-.047.071-.08.183m16.963-.019c-.071.24-.037.276.039.04.032-.1.048-.19.037-.203-.012-.012-.046.062-.076.163m17.582-.051c-.021.22-.063.216 2.017.205l1.963-.01-1.956-.03c-1.077-.017-1.961-.034-1.966-.04a.484.5 0 0 1-.03-.096c-.012-.048-.025-.061-.028-.03m-32.733.396c-.046.153-.076.287-.066.298.011.011.058-.105.105-.258.046-.153.076-.287.065-.298-.01-.01-.057.105-.104.258m2.008.07c0 .041.04.187.089.324.049.137.089.216.089.174 0-.04-.04-.187-.09-.324-.048-.137-.088-.215-.088-.174m12.77.361c-.075.117-.105.186-.068.154.073-.062.258-.365.223-.365-.011 0-.081.095-.156.211m37.618-.156c-.003.018.03.13.071.25.042.12.095.353.12.517l.042.3-.02-.337c-.016-.263-.194-.873-.213-.73m-30.223.172c.045.084.125.207.177.274l.096.122-.082-.153a2.183 2.252 0 0 0-.177-.275l-.096-.12.082.152m-24.298.251c-.046.153-.076.287-.065.298.01.01.057-.105.104-.258.047-.153.076-.287.066-.298-.011-.011-.058.105-.105.258m12.798-.232c-.568.025-.6.031-.332.063.267.033 1.117-.03 1.172-.087.012-.013-.03-.018-.095-.013-.064.006-.4.022-.745.037m3.697.476a2.952 2.952 0 0 1-.371.307c-.283.201-.343.274-.109.132.157-.095.668-.557.62-.561-.015-.001-.078.054-.14.122m8.11 0c.026.055.083.145.126.2l.078.1-.047-.1a1.255 1.295 0 0 0-.126-.2l-.079-.1.048.1m26.543.224c0 .124.01.175.02.113a.727.727 0 0 0 0-.225c-.01-.061-.02-.01-.02.112m-29.028.337-.231.287.276-.274c.228-.228.284-.262.325-.2.027.041.115.182.196.312.172.28.243.32.084.05-.325-.558-.337-.561-.65-.175m34.533.47c-.014.878-.019.886-.456.898l-.352.01.288.017c.556.036.577-.003.546-1.009l-.016-.548-.01.632m-41.076-.383c-.12.066-.2.121-.18.123.051.003.421-.193.421-.224 0-.032.002-.033-.241.101m-11.341-.039a.834.834 0 0 0 .241 0c.06-.012 0-.022-.133-.021-.133 0-.182.01-.108.021m33.94.002c.168.01.429.01.58 0 .152-.01.015-.019-.304-.018-.318 0-.442.008-.275.018m-3.068.05c.153.01.393.01.531-.001.139-.01.013-.018-.28-.018-.292 0-.405.008-.251.018m-13.432.45c-.197.245-.274.36-.241.36.01 0 .12-.134.244-.298.268-.356.266-.399-.003-.063m3.54-.108c.044.084.124.207.176.274l.096.121-.082-.153a2.183 2.252 0 0 0-.177-.274l-.096-.121.082.153m-18.426.071c0 .041.019.12.042.174.026.063.041.073.041.025a.56.56 0 0 0-.041-.174c-.026-.063-.042-.072-.042-.025m5.996.134a.384.384 0 0 0 .17 0c.046-.013.008-.023-.085-.023s-.131.01-.085.023m-.868.215c0 .123.01.174.02.112a.7.723 0 0 0 0-.224c-.01-.062-.02-.011-.02.112m22.909 1.62c0 1.014.006 1.422.014.907.008-.516.008-1.346 0-1.845-.008-.499-.014-.077-.014.938m-11.462-1.242c.06.112.15.258.197.324.048.066.037.029-.024-.083a3.829 3.829 0 0 0-.197-.324c-.048-.066-.037-.029.024.083m-24.065.225c-.06.194-.101.361-.09.372.01.01.068-.139.128-.332.06-.194.101-.361.091-.372-.01-.01-.068.139-.129.332m12.577.867c0 .63.007.882.016.559a24.489 25.267 0 0 0 0-1.147c-.01-.307-.016-.042-.016.588m9.515-.648c0 .275.008.38.018.235.01-.144.01-.369 0-.498-.01-.13-.018-.01-.018.263m30.069-.239c.06.012.157.012.217 0 .06-.011.011-.021-.109-.021-.119 0-.168.01-.108.021m-.326.09c-.042.052-.044.075-.006.075.03 0 .054-.021.054-.047 0-.025.038-.056.085-.069.071-.019.072-.023.005-.028-.043-.003-.105.028-.138.069m-25.19.087c.148.262.516.835.536.835.014 0-.006-.05-.045-.112a62.045 64.018 0 0 1-.276-.449c-.112-.185-.215-.336-.228-.336-.012 0-.007.028.013.062m-24.572.152a.248.248 0 0 0-.133.186c-.011.12-.01.12.034.013.064-.155.077-.156 1.886-.204l1.619-.043-1.643-.008c-1.238-.005-1.672.008-1.763.056m3.686.319c.057.17.111.3.12.291.03-.031-.084-.403-.155-.502-.044-.063-.032.013.035.21m18.934.195c.06.112.15.258.197.324.048.066.037.029-.024-.084a3.829 3.829 0 0 0-.197-.323c-.048-.067-.037-.03.024.083m-16.671-.08c0 .042.019.12.041.175.027.063.042.072.042.025a.56.56 0 0 0-.042-.174c-.026-.063-.041-.072-.041-.025m41.934.004c-.043.608.894 1.97 1.661 2.414.295.171.24.111-.132-.145-.652-.45-1.298-1.418-1.5-2.248-.015-.067-.025-.074-.029-.02m-48.169.249c-.033.112-.05.213-.04.225.011.01.047-.072.08-.185.032-.112.05-.213.04-.225-.012-.01-.047.072-.08.185m50.381.185c.157.302.691.683 1.161.826.405.124.459.091.066-.04-.446-.15-.75-.334-1.04-.634-.128-.132-.212-.2-.187-.152m-24.834.084c.026.055.083.145.126.2l.079.1-.048-.1a1.255 1.295 0 0 0-.126-.2l-.079-.1.048.1m-21.34.075c0 .041.04.187.089.324.048.137.088.216.088.174s-.04-.186-.088-.323c-.05-.138-.09-.216-.09-.175m19.086.129c.061.112.15.258.198.324.048.066.037.029-.024-.083a3.829 3.829 0 0 0-.198-.324c-.047-.067-.037-.03.024.083m31.393.414c.067.019.148.09.181.157.054.11.06.113.06.02.002-.139-.09-.222-.238-.216l-.123.004.12.035m-57.173.384c-.046.153-.076.287-.065.298.01.011.057-.105.104-.258.047-.153.076-.287.066-.298-.011-.01-.058.105-.105.258m55.181-.094c.06.012.148.011.194-.001.046-.013-.003-.022-.11-.022-.106 0-.144.01-.084.023m-53.105.242c-.017.073-.022.143-.011.154.011.012.035-.038.053-.111.018-.073.023-.142.012-.154-.012-.012-.036.038-.054.111m7.227.171c0 .041.03.154.065.25.036.095.065.14.065.1 0-.042-.029-.154-.065-.25-.036-.096-.065-.141-.065-.1m19.683.237c.258.41.326.51.347.51.013 0-.015-.06-.063-.136-.258-.41-.326-.511-.347-.511-.013 0 .016.062.063.137m-2.291.2c.062.117.164.274.226.349.061.075.032.002-.066-.163-.212-.358-.322-.486-.16-.186m-24.86.19c-.018.073-.023.142-.012.154.012.012.036-.038.053-.111.018-.073.023-.143.012-.154-.012-.012-.035.038-.053.11m55.266.226c-.133.053-.178.083-.101.068.151-.03.47-.164.391-.164-.026 0-.157.043-.29.096m-57.462.033c-.005.096.017.111.151.105.142-.007.145-.01.027-.028-.071-.012-.14-.059-.151-.105-.015-.06-.023-.052-.027.028m29.691-.018c-.015.04-.077.083-.138.094-.099.02-.096.023.022.03.123.005.232-.106.168-.173-.014-.013-.037.008-.052.049m-27.74.08-.145.038.13.006c.072.003.143-.016.16-.044.016-.027.023-.047.015-.044-.008.004-.08.023-.16.044m19.198.014c.02.021.482.032 1.024.025l.987-.014-1.024-.025c-.563-.013-1.008-.007-.987.014m-13.099.023a4.487 4.63 0 0 0 .508 0c.14-.01.025-.018-.254-.018s-.393.008-.254.018m3.817 0a4.487 4.63 0 0 0 .507 0c.14-.01.026-.018-.253-.018-.28 0-.394.008-.254.018m23.217 0c.287.01.744.01 1.015 0s.036-.016-.522-.016c-.559 0-.78.008-.493.016m8.162 0c.286.01.753.01 1.039 0 .286-.008.052-.016-.52-.016s-.804.008-.519.016m11.573.2c.221.009.569.009.774 0 .204-.01.024-.017-.401-.017s-.593.008-.373.017"/><path fill="#040404" d="M12.65 1.523c-7.747.032-8.177.042-8.324.194a.22.227 0 0 1-.135.056.212.212 0 0 0-.141.075.22.226 0 0 1-.148.074.264.272 0 0 0-.153.063 1.295 1.336 0 0 1-.388.242c-.073.03-.133.073-.133.095 0 .024-.04.055-.088.071-.136.045-1.023 1.002-1.023 1.104 0 .032-.032.086-.072.12a.225.232 0 0 0-.073.157c0 .053-.032.109-.072.124-.04.016-.072.081-.072.146 0 .064-.028.134-.061.156-.073.048-.151.285-.226.688-.064.342-.049 29.775.015 30.084.02.096.06.23.088.299.129.31.212.477.268.539a.258.266 0 0 1 .06.157c0 .05.033.104.073.12.04.015.072.06.072.099 0 .07.238.35.769.904.158.165.407.363.555.44s.281.161.297.187c.015.025.081.046.147.046.066 0 .132.034.147.075.016.041.08.075.141.075.063 0 .13.03.152.068.114.203 3.719.217 55.405.217 51.367 0 54.76-.014 54.874-.217.021-.037.09-.068.152-.068s.126-.034.141-.075c.015-.04.069-.075.12-.075.343 0 1.795-1.285 1.795-1.589 0-.032.033-.072.072-.087.04-.016.073-.07.073-.12a.258.266 0 0 1 .06-.157c.058-.063.094-.136.31-.614.135-.302.14-30.404.004-30.677a.835.835 0 0 1-.084-.231c0-.034-.033-.075-.073-.09-.04-.016-.072-.084-.072-.15 0-.067-.033-.134-.073-.15-.04-.015-.072-.085-.072-.155 0-.069-.022-.126-.05-.126-.027 0-.066-.042-.084-.094-.057-.154-.832-1.052-.908-1.052a.68.68 0 0 1-.155-.125c-.072-.068-.155-.125-.186-.125-.03 0-.082-.033-.115-.074-.033-.041-.091-.075-.13-.075s-.102-.034-.142-.075a.262.262 0 0 0-.16-.075.22.226 0 0 1-.147-.074c-.033-.041-.094-.075-.135-.075a.272.272 0 0 1-.152-.07c-.21-.194.649-.19-47.52-.201-25.615-.006-50.105.003-54.423.021m-.167 6.325c.209.131.656.932 2.703 4.842.817 1.561.82 1.565 1.17 1.425 2.097-.843 3.534-1.249 5.521-1.56 1.265-.197 4.758-.21 5.991-.024 1.882.287 3.573.739 5.186 1.386.956.383.797.49 1.626-1.103.114-.22.386-.735.605-1.146.218-.412.717-1.354 1.107-2.094.8-1.513.953-1.72 1.284-1.72.407 0 .622.253.56.658-.032.198-.27.66-1.854 3.58a640.221 660.573 0 0 0-.809 1.495l-.404.748c-.22.404-.232.386.576.872 4.3 2.585 7.487 6.575 8.917 11.166.613 1.967 1.068 5.251.764 5.512-.175.15-40.874.07-41.074-.081-.106-.08-.12-1.624-.021-2.315.866-6.04 4.24-10.994 9.661-14.19 1.047-.616 1.002-.564.786-.914a917.255 917.255 0 0 1-2.79-5.185c-.404-.762-.408-1.061-.02-1.332.2-.138.32-.142.515-.02m84.67 2.461c.001.967.017 1.858.035 1.98l.033.224.412-.498c.227-.273.573-.693.77-.933l.357-.436h.4c.605 0 .607-.006-.342 1.042-.308.34-.573.673-.59.739-.044.183-.082.121 1.01 1.608.366.497.665.934.665.97 0 .078-.854.167-.916.096-.02-.024-.282-.402-.582-.841a31.79 31.79 0 0 0-.717-1.017l-.172-.22-.153.183c-.187.224-.213.37-.214 1.216v.66h-.822V11.85c0-1.777.015-3.246.033-3.265.017-.018.202-.033.41-.033h.379l.003 1.757M85.862 8.9c.038.04.06.848.078 2.759l.024 2.701.798.03c.438.018 1.009.035 1.268.038l.47.007v.632L87.2 15.1c-1.345.034-1.982.007-2.043-.088-.044-.066-.05-5.555-.007-5.878.04-.305.498-.456.712-.235m-22.169.049c1.407.35 2.071 1.284 2.075 2.92.005 1.684-.601 2.605-2.05 3.118-.284.1-.436.113-1.534.135l-1.218.024-.05-.134c-.031-.086-.05-1.194-.05-3.09V8.965l.206-.05c.394-.098 2.185-.075 2.62.033m3.823.073c.426.44-.108 1.119-.605.769-.293-.205-.314-.527-.054-.796.202-.208.44-.198.659.027m22.527-.025c.18.174.2.395.054.642-.32.54-1.096.062-.816-.503.155-.314.514-.379.763-.14m-8.819.517c.016.061.03.246.03.411.001.164.015.38.03.48l.03.179.456.028c.535.033.596.07.596.367 0 .279-.083.317-.685.317h-.436l.02 1.358c.025 1.739.076 1.882.679 1.882.298 0 .374.057.374.28 0 .586-1.247.54-1.656-.06-.173-.253-.226-.728-.228-2.014 0-.508-.015-1.038-.031-1.179l-.03-.256-.264-.022c-.296-.026-.35-.078-.351-.345-.001-.222.055-.273.353-.319.284-.043.322-.12.322-.643 0-.389.02-.427.266-.516.267-.097.492-.075.525.052m-19.262.034c-.332.048-.321-.027-.317 2.221.004 2.898-.042 2.715.686 2.716 1.182.002 1.979-.442 2.39-1.33l.18-.389V11.02l-.19-.368c-.465-.897-1.447-1.293-2.749-1.106m12.262 1.172c.58.292.992 1.09.992 1.92 0 .37.002.37-1.546.392-1.483.021-1.516.028-1.47.298.165.97 1.155 1.456 2.257 1.108.287-.09.373-.045.453.24.202.718-2.113.71-2.871-.01-1.755-1.665.093-5.004 2.185-3.948m-3.212.149c0 .36-.068.476-.28.477-.852.002-1.066.598-1.07 2.978l-.002.76H68.9l-.033-2.097c-.038-2.441-.048-2.374.333-2.348.298.02.361.073.362.301 0 .205.085.377.13.264.125-.325.662-.656 1.062-.656h.256v.32m8.033-.196c.324.168.195.723-.15.641-.37-.088-1.174-.05-1.384.066-1.616.888-.693 3.581 1.063 3.102.38-.104.435-.105.55-.009.204.17.17.465-.068.588-.304.157-1.527.145-1.924-.02-1.316-.543-1.73-2.577-.755-3.707.262-.304.71-.635.858-.635a.617.617 0 0 0 .234-.077c.208-.116 1.323-.08 1.576.051m15.135 0c.805.38.94.83.94 3.147v1.252l-.308.032c-.566.06-.561.073-.561-1.508 0-2.038-.128-2.333-.998-2.292-.893.042-1 .28-1.022 2.267l-.016 1.502-.28.033c-.603.07-.585.147-.578-2.358.006-2.202-.018-2.07.372-2.09.333-.016.322-.026.372.356l.031.24.23-.223c.514-.495 1.23-.637 1.818-.359m-26.667.03c.058.05.07.406.07 2.22v2.163h-.822v-2.19c0-2.033.006-2.195.084-2.246.104-.066.573-.03.668.053m22.631 2.167v2.22l-.398-.014-.399-.015-.012-2.108c-.015-2.466-.047-2.303.449-2.303h.36v2.22m-17.175-1.629c-.418.197-.7.588-.7.97v.186l1.05-.014 1.051-.013.017-.123c.095-.694-.773-1.31-1.418-1.006m26.939 7.239c.127.068.223 10.491.11 11.99l-.031.405-.315.03c-.173.017-.648.017-1.056 0l-.742-.032V18.474l.11-.025c.321-.075 1.772-.055 1.924.027m-4.94.372c.851.261 1.108 1.368.456 1.973-.752.7-1.994.168-1.994-.854 0-.814.75-1.36 1.538-1.12m-28.403.176c1.98.25 3.028 1.013 3.487 2.54.243.807.115 2.12-.282 2.91-.344.682-1.517 1.676-1.98 1.676a.22.22 0 0 0-.14.048c-.17.176-1.111.308-2.266.318l-.773.008-.03.598c-.016.329-.032 1.31-.036 2.18l-.006 1.583H62.46l.012-5.82.012-5.82.242-.064c.133-.035.575-.084.982-.108.407-.024.754-.056.769-.072.048-.05 1.651-.032 2.087.023m-9.322.271.143.424c.153.45.76 2.4.9 2.892.035.123.107.347.16.498.109.307.642 2.02.76 2.443.043.15.105.342.139.425.033.082.16.475.282.872.67 2.187.78 2.542.884 2.823.208.562.331 1.11.265 1.177-.042.044-.326.061-1.01.061-1.05 0-1.218-.024-1.218-.176a.472.488 0 0 0-.043-.186 3.43 3.43 0 0 1-.121-.36 96.35 96.35 0 0 0-.734-2.331l-.077-.212H55.99c-.871 0-1.684.014-1.806.032l-.222.031-.175.58a93.64 96.617 0 0 0-.516 1.745c-.28.972-.132.874-1.362.893-1.042.016-1.043.016-1.043-.092 0-.099.405-1.473.485-1.643.019-.042.07-.199.113-.35a456.35 456.35 0 0 1 1.855-6.031 25.961 26.787 0 0 0 .242-.773c.056-.192.283-.932.506-1.645l.404-1.296.553-.028c.304-.015.909-.027 1.344-.025l.792.003.083.25m16.82 1.831c.003 1.132.02 2.326.036 2.655l.03.597.528-.772a309.84 309.84 0 0 1 3.047-4.274l.19-.262 1.137.001c1.164 0 1.354.017 1.354.119 0 .032-.837 1.13-1.86 2.441-1.371 1.757-1.86 2.417-1.86 2.512 0 .076.154.375.378.73a173.154 178.659 0 0 1 .806 1.3c.236.385.617 1.001.847 1.372 1.363 2.196 1.943 3.157 1.949 3.229.01.127-.342.164-1.406.149l-.953-.014-.235-.374a114.795 118.444 0 0 1-.963-1.595c-2.264-3.8-1.98-3.432-2.334-3.028a10.493 10.827 0 0 0-.463.58l-.235.32v4.057l-.725.03c-.4.018-.865.018-1.034.002l-.309-.03-.032-.804c-.045-1.096-.011-10.857.038-10.934.029-.047.294-.063 1.05-.063h1.012l.007 2.056m17.916-1.22c0 .458-.021.868-.046.909-.04.064-.347.077-2.186.09-1.905.015-2.146.025-2.2.097-.065.088-.079 2.146-.018 2.73l.03.298 2.005.038c2.39.045 2.126-.08 2.126 1.01v.806l-.833.032c-.459.018-1.393.033-2.077.033h-1.245l-.005.312c-.004.171-.02 1.269-.037 2.438-.016 1.17-.048 2.146-.07 2.169-.052.053-1.995.052-2.047-.002-.048-.05-.052-11.588-.004-11.709.032-.082.237-.087 3.321-.087h3.287v.835m-77.048.706c-1.122.43-1.567 1.833-.876 2.763.899 1.207 2.708.846 3.067-.613.322-1.307-1.002-2.606-2.191-2.15m18.904-.028c-1.338.46-1.736 2.004-.77 2.988.894.909 2.475.57 2.805-.601.092-.329.114-1.04.037-1.213l-.121-.269c-.291-.651-1.312-1.125-1.951-.905m31.137.117a2.57 2.652 0 0 0-.28.073l-.16.051.015 1.912c.011 1.488.029 1.927.078 1.977.176.182 1.824.045 2.313-.192 1.41-.683 1.509-2.827.162-3.53-.521-.273-1.477-.404-2.128-.291m-9.276.357c0 .062-.089.453-.198.87a65.691 67.78 0 0 0-.237.923 3.26 3.26 0 0 1-.087.3 14.801 15.272 0 0 0-.178.581c-.072.247-.19.64-.263.872-.272.873-.357 1.197-.321 1.234.047.048 2.693.025 2.741-.025.02-.02-.017-.194-.082-.386-.205-.601-.882-2.83-.939-3.09-.185-.847-.436-1.58-.436-1.279m51.14 1.236c1.095.354 1.805 1.066 2.23 2.236.069.19.11.35.21.797.058.265.059 1.774 0 1.87-.04.064-.41.078-2.692.1-2.929.027-2.792.009-2.751.364.154 1.34 1.99 2.11 3.896 1.631.898-.226.9-.225.993.372.017.11.062.329.1.487.088.365.047.448-.285.576-1.176.454-3.56.474-4.431.037-.634-.318-.83-.444-1.121-.722-1.307-1.245-1.661-3.728-.785-5.504a.673.673 0 0 0 .07-.2c0-.374 1.464-1.827 1.841-1.827.04 0 .093-.02.118-.045.253-.248 2.013-.364 2.607-.172m-11.439.05.254.031v8.506l-.178.034c-.21.04-1.845-.006-1.892-.055-.06-.062-.068-8.35-.007-8.425.032-.04.175-.077.33-.087.516-.034 1.24-.036 1.493-.004m9.87 1.393c-.757.21-1.392.969-1.417 1.692l-.01.297 1.498.015c.824.008 1.614 0 1.757-.017l.26-.032-.03-.263c-.039-.34-.206-.899-.298-.993-.039-.04-.07-.094-.07-.118 0-.16-.586-.513-1.006-.605-.315-.069-.355-.067-.685.024"/><path fill="#545554" d="M96.35 11.12c0 1.343.006 1.885.014 1.205.007-.68.007-1.78 0-2.443-.008-.663-.014-.106-.014 1.237M85.908 9.823c0 .22.01.303.02.186a2.419 2.496 0 0 0-.001-.399c-.01-.102-.019-.006-.019.213m11.212.45c0 .438.008.61.016.383.01-.228.01-.586 0-.798s-.016-.025-.016.414m-11.983-.075c0 .288.008.406.017.262.01-.144.01-.38 0-.523-.01-.145-.017-.027-.017.261m-4.692-.274c0 .11.01.149.022.087a.56.56 0 0 0-.001-.2c-.012-.047-.022.003-.021.113m.942.708a.68.68 0 0 0 .217 0c.06-.012.01-.022-.109-.022-.12 0-.168.01-.108.022m-14.606 1.76c0 .918.007 1.294.015.835.008-.46.008-1.211 0-1.67-.008-.46-.015-.084-.015.835m.774.1c0 .918.006 1.293.014.834.008-.459.008-1.21 0-1.67-.008-.46-.014-.083-.014.835m1.297-1.121c0 .164.01.225.02.136.011-.09.01-.224 0-.3-.011-.074-.02 0-.02.164M23.8 12.427c.114.01.288.01.386 0 .1-.011.007-.02-.206-.02s-.294.01-.18.02m1.932 0c.114.01.288.01.387 0 .099-.011.006-.02-.207-.02-.212 0-.293.01-.18.02m69.36 1.11c0 .507.007.715.016.461.01-.253.01-.668 0-.922-.009-.254-.016-.046-.016.461m-22.424-.512a.834.834 0 0 0 .241-.001c.06-.012 0-.022-.133-.02-.133 0-.181.009-.108.02m7.78.214c0 .15.01.213.02.137a1.073 1.107 0 0 0 0-.274c-.01-.075-.02-.014-.02.137m4.689.972c0 .247.008.354.018.238a3.151 3.251 0 0 0 0-.448c-.01-.131-.018-.037-.018.21m-16.234.1c0 .219.009.302.02.185a2.419 2.496 0 0 0-.001-.398c-.01-.102-.019-.007-.019.213m20.438.224c0 .288.008.406.018.262.01-.144.01-.38 0-.524-.01-.144-.018-.026-.018.262m-28.46 0c0 .15.01.213.02.137a1.073 1.107 0 0 0 0-.274c-.01-.076-.02-.014-.02.137m8.745.05c0 .15.009.212.02.137a1.046 1.08 0 0 0 0-.274c-.011-.076-.02-.014-.02.137m16.859-.164c.073.012.192.012.265 0s.014-.02-.132-.02c-.147 0-.206.009-.133.02m-24.253.1a.834.834 0 0 0 .242 0c.06-.012 0-.022-.134-.021-.133 0-.181.01-.108.021m34.883.164c0 .123.009.173.02.112a.727.727 0 0 0 0-.224c-.011-.062-.02-.012-.02.112m-17.297 4.422a.845.845 0 0 0 .242 0c.06-.013 0-.022-.134-.022-.133 0-.181.01-.108.022m12.133.936c0 .33.007.457.017.285.01-.172.01-.442 0-.598-.01-.157-.018-.016-.017.313m-17.924.4c0 .383.008.533.017.333.009-.2.009-.514 0-.698-.01-.183-.017-.02-.017.364m-2.079.225c0 .287.008.405.018.261.01-.144.01-.38 0-.523-.01-.144-.018-.027-.018.262m13.383.224c0 .329.009.457.018.284.01-.172.01-.441 0-.598-.01-.156-.018-.015-.018.314m14.687.075c0 .287.008.405.018.261.01-.144.01-.38 0-.523-.01-.144-.018-.026-.018.262m-34.573-.313c.087.01.218.01.29 0s.002-.021-.158-.02c-.16 0-.219.009-.132.02m22.732.25c.154.01.393.01.532 0s.013-.019-.28-.018c-.292 0-.405.008-.252.018m9.72 3.9c0 1.687.006 2.377.014 1.534s.007-2.223 0-3.066-.014-.153-.014 1.533m-4.356-1.87c0 .165.01.226.02.137a1.29 1.33 0 0 0 0-.3c-.011-.074-.02 0-.02.164m-5.704 1.156a.384.384 0 0 0 .17 0c.046-.013.008-.023-.085-.023s-.13.01-.085.023m3.824.838c0 .329.007.457.017.284.01-.172.01-.441 0-.598-.01-.157-.018-.015-.017.314m-2.904 1.008c.154.01.393.01.532 0 .138-.01.012-.018-.28-.018-.292 0-.406.009-.252.018m15.822 1.346c.114.01.288.01.387 0 .099-.011.006-.02-.207-.02-.212 0-.294.01-.18.02m-48.582.35c.231.009.622.009.87 0 .247-.01.057-.017-.42-.017s-.681.007-.45.016m18.031 1.31c0 .534.007.753.016.485.009-.267.009-.704 0-.972-.009-.267-.016-.048-.016.486m-2.079-.124c0 .329.008.457.017.284.01-.172.01-.441 0-.598-.01-.156-.017-.015-.017.314m21.596.025c0 .342.008.483.017.311a6.77 6.77 0 0 0 0-.623c-.01-.171-.017-.031-.017.312m-8.214.224c0 .329.009.457.018.285.01-.173.01-.442 0-.598-.01-.157-.018-.016-.018.313m14.685.424c0 .205.01.29.02.187a2.1 2.168 0 0 0 0-.374c-.01-.103-.02-.019-.02.187m-35.51.473c.001.22.01.303.02.186a2.421 2.498 0 0 0 0-.399c-.01-.102-.02-.006-.02.213m22.946.374c0 .123.01.174.021.112a.7.723 0 0 0 0-.224c-.011-.062-.021-.011-.021.112m-83.19.573c0 .302.008.419.018.26.01-.158.01-.405 0-.548-.01-.143-.018-.013-.018.288m47.993.01c.06.013.158.013.217 0 .06-.011.011-.02-.108-.02s-.169.009-.109.02m34.23 0a.385.385 0 0 0 .169 0c.046-.013.008-.023-.085-.023s-.13.01-.084.023m-77.998 1c.433.008 1.129.008 1.546 0 .417-.009.062-.015-.788-.015s-1.192.007-.758.015m36.136 0a3.948 4.074 0 0 0 .483-.001c.126-.01.01-.019-.255-.018-.265 0-.368.008-.228.018"/><path fill="#294938" d="M97.118 9.026c0 .274.008.38.018.235.01-.145.01-.37 0-.499s-.018-.01-.018.264m-11.214.249c0 .11.01.149.022.087a.532.549 0 0 0-.001-.2c-.012-.047-.022.003-.02.113m-.772.175c0 .15.01.212.02.137a1.046 1.08 0 0 0 0-.275c-.01-.075-.02-.013-.02.138m-22.564.034a.394.394 0 0 0 .169 0c.046-.013.008-.023-.085-.023s-.13.01-.084.023m8.41 1.386c0 .192.009.264.02.161a1.804 1.861 0 0 0-.001-.349c-.01-.088-.02-.004-.02.188m10.771-.24a.384.384 0 0 0 .169 0c.047-.012.008-.022-.084-.022-.093 0-.131.01-.085.022m8.368 2.234c0 1.234.007 1.731.014 1.106.008-.626.008-1.635 0-2.243-.007-.609-.014-.097-.014 1.137m-8.61-1.583c.127.01.333.01.46 0 .125-.01.022-.019-.23-.019s-.356.008-.23.019m11.765-.002c.06.012.147.012.194 0 .046-.013-.004-.023-.11-.022-.106 0-.144.01-.084.022m-12.876.19c.001.109.01.148.022.086a.53.547 0 0 0 0-.2c-.013-.047-.022.004-.022.113m-15.455.424c0 .233.008.328.018.212a2.776 2.864 0 0 0 0-.424c-.01-.116-.018-.021-.018.212m3.913.125c0 .219.008.303.019.185a2.421 2.498 0 0 0 0-.399c-.01-.102-.02-.006-.02.214m-45.538.409a.68.68 0 0 0 .217 0c.06-.012.01-.022-.109-.022-.12 0-.168.01-.108.022m3.043 0a.68.68 0 0 0 .218 0c.06-.012.01-.022-.109-.022-.12 0-.169.01-.109.022m47.03.6c.232.009.623.01.87 0s.058-.017-.42-.017-.68.008-.45.017m-3.718.162c0 .096.01.135.022.087a.431.431 0 0 0 0-.174c-.012-.048-.022-.009-.022.087m10.775.474c0 .11.01.148.022.086a.56.56 0 0 0-.001-.2c-.012-.047-.022.004-.021.114m15.902.648c0 .438.007.611.016.384.01-.228.01-.587 0-.798-.009-.211-.016-.025-.016.414m-4.156.199c0 .329.008.457.017.285a6.23 6.23 0 0 0 0-.598c-.01-.157-.017-.016-.017.313m-25.413.05c0 .301.008.418.018.26.01-.159.01-.406 0-.548-.01-.143-.018-.014-.018.288m.773.05c0 .274.008.38.017.235.01-.145.01-.37 0-.499s-.017-.01-.017.264m19.44-.189c.088.012.218.012.29 0 .073-.011.002-.02-.157-.02-.16 0-.219.01-.132.02m1.476.338c0 .192.01.265.02.161a1.803 1.86 0 0 0 0-.349c-.012-.088-.02-.004-.02.188m6.62 0c0 .192.008.265.019.161a1.829 1.887 0 0 0 0-.349c-.011-.088-.02-.004-.02.188m-9.956.05c0 .11.01.149.022.087a.566.566 0 0 0 0-.2c-.013-.047-.023.004-.022.113m-16.232.075c0 .123.01.174.02.112a.7.723 0 0 0 0-.224c-.01-.062-.02-.011-.02.112m17.03.236c.165.01.437.01.603 0 .166-.01.03-.018-.302-.018-.332 0-.468.009-.302.018m5.725-.002a.384.384 0 0 0 .17 0c.046-.013.008-.023-.085-.023s-.131.01-.085.023m2.85 0a.384.384 0 0 0 .17 0c.046-.013.008-.023-.085-.023s-.13.01-.084.023m4.662 0a.68.68 0 0 0 .217 0c.06-.011.011-.021-.109-.021-.119 0-.168.01-.108.022m-.532 3.29c.087.012.228.012.314 0 .087-.01.016-.02-.157-.02-.172 0-.243.01-.157.02m-89.466.75-.166.186.181-.171c.169-.16.203-.202.167-.202-.009 0-.09.084-.182.186m46.625-.103c.639.036 1.39.038 1.37.004-.013-.02-.386-.033-.83-.028-.443.005-.686.016-.54.024m18.23.365c0 .206.009.29.02.187a2.1 2.168 0 0 0 0-.374c-.011-.103-.02-.018-.02.187m17.921-.15c0 .124.01.174.021.113a.7.723 0 0 0 0-.225c-.011-.061-.021-.01-.021.113m-29.46 5.807c0 3.208.005 4.513.012 2.9s.007-4.237 0-5.832c-.007-1.595-.013-.276-.013 2.932m9.462-5.184c0 .164.009.225.02.136.01-.09.01-.224-.001-.299-.011-.075-.02-.002-.02.163m13.384.1c0 .191.009.264.02.16a1.804 1.861 0 0 0-.001-.349c-.01-.088-.02-.003-.02.189m14.688.124c0 .206.009.29.02.187a2.1 2.168 0 0 0 0-.374c-.011-.103-.02-.018-.02.187m-30.888-.084c0 .009.07.082.157.162l.157.146-.142-.161c-.132-.152-.172-.186-.172-.147m20.397.87c.338.007.903.007 1.257 0 .353-.01.077-.016-.613-.016-.691 0-.98.006-.644.015m-56.513.175-.143.162.158-.147c.086-.08.156-.153.156-.162 0-.038-.04-.004-.171.147m61.42 1.27c.166.01.438.01.604 0 .166-.01.03-.017-.302-.017s-.468.008-.302.017m-20.36 1.235c0 .164.008.225.02.136.01-.09.01-.225-.001-.3s-.02 0-.02.164m13.427.074c0 .096.01.136.023.087a.431.431 0 0 0 0-.174c-.013-.048-.023-.009-.023.087m1.088.436c.3.01.788.01 1.087 0 .3-.008.055-.016-.543-.016-.598 0-.843.008-.544.016m3.07 1.608c0 .123.009.174.02.112a.7.723 0 0 0 0-.224c-.011-.062-.02-.011-.02.112m-37.106.184a.384.384 0 0 0 .169 0c.046-.012.008-.023-.085-.023s-.13.01-.084.023m1.475.002c.113.01.287.01.386 0 .1-.01.006-.02-.206-.02-.213.001-.294.01-.18.02m33.745.05c.153.01.403.01.555 0 .153-.01.028-.018-.277-.018s-.43.009-.278.018m-2.264.587c0 .329.008.457.017.284.01-.172.01-.441 0-.598-.01-.157-.017-.015-.017.314m-22.424.01a.393.393 0 0 0 .17 0c.046-.013.007-.024-.085-.024-.093 0-.131.01-.085.023m.484.001a.824.824 0 0 0 .241 0c.06-.012 0-.021-.133-.021s-.181.01-.108.021m-1.014.837c0 .137.01.187.021.112a.86.888 0 0 0 0-.25c-.012-.06-.021.001-.02.138m41.45-.087c.498.008 1.314.008 1.812 0s.09-.015-.906-.015c-.997 0-1.404.007-.906.015m-8.107 2.081c0 .85.007 1.205.015.788.008-.416.008-1.112 0-1.545-.008-.434-.015-.093-.015.757m-33.395.075c0 .096.01.135.023.087a.397.41 0 0 0 0-.175c-.013-.047-.023-.008-.023.088m7.446.299c0 .206.008.29.019.187a2.1 2.168 0 0 0 0-.374c-.01-.103-.02-.019-.02.187m21.597.1c0 .232.009.328.019.212a2.776 2.864 0 0 0 0-.424c-.01-.117-.019-.022-.019.211m-8.214.15c0 .206.009.29.02.187a2.1 2.168 0 0 0 0-.374c-.011-.102-.02-.018-.02.187m14.686.1c0 .15.009.212.02.137a1.073 1.107 0 0 0 0-.274c-.011-.076-.02-.014-.02.137m-25.99.299c0 .288.009.406.019.262a4.487 4.63 0 0 0 0-.524c-.01-.144-.018-.026-.018.262m-9.52.224c0 .165.009.226.02.136.01-.09.01-.224-.001-.299s-.02-.001-.02.163m-13.339.311c.178.01.482.01.676 0 .194-.009.048-.017-.324-.017s-.53.008-.352.017m8.143 0a11.79 12.164 0 0 0 .797 0c.22-.009.04-.016-.399-.016-.438 0-.618.007-.398.016m13.236 0c.086.01.238.01.339 0 .1-.01.03-.02-.156-.02s-.269.008-.183.02m6.258 0c.286.01.753.01 1.039 0 .285-.008.052-.015-.52-.015s-.805.007-.52.016m7.175-.001c.087.01.228.01.315 0 .086-.012.015-.02-.158-.02-.172 0-.243.008-.157.02m.846 0c.073.01.193.01.266 0s.013-.022-.133-.022-.206.01-.133.021m7.585.001c.206.01.543.01.749 0 .206-.009.037-.017-.375-.017s-.58.008-.374.017m4.638 0c.1.01.263.01.363 0 .099-.01.017-.02-.182-.02-.2 0-.28.01-.18.02m-92.786.998c.273.009.718.009.99 0s.05-.017-.494-.017c-.545 0-.768.008-.496.017m21.644.05c1.256.007 3.31.007 4.566 0 1.255-.008.228-.014-2.283-.014s-3.538.006-2.283.014"/></g><rect stroke-width=".5" rx="5" height="38" width="117" y="1" x="1" stroke="#fff" fill="none"/></svg>