<svg width="120" height="40" xmlns="http://www.w3.org/2000/svg">
 <g>
  <title>Layer 1</title>
  <g stroke-width="0">
   <g>
    <g>
     <path d="m115.23215,39.42032l-110.31938,0c-2.42703,0 -4.41278,-2.20109 -4.41278,-4.89131l0,-29.34786c0,-2.69022 1.98575,-4.89131 4.41278,-4.89131l110.31938,0c2.42703,0 4.41278,2.20109 4.41278,4.89131l0,29.34786c0,2.69022 -1.98575,4.89131 -4.41278,4.89131z"/>
    </g>
    <g>
     <g>
      <path fill="#A6A6A6" d="m115.23215,1.07245c2.04753,0 3.70673,1.83913 3.70673,4.1087l0,29.34786c0,2.26957 -1.6592,4.1087 -3.70673,4.1087l-110.31938,0c-2.04753,0 -3.70673,-1.83913 -3.70673,-4.1087l0,-29.34786c0,-2.26957 1.6592,-4.1087 3.70673,-4.1087l110.31938,0m0,-0.78261l-110.31938,0c-2.42703,0 -4.41278,2.20109 -4.41278,4.89131l0,29.34786c0,2.69022 1.98575,4.89131 4.41278,4.89131l110.31938,0c2.42703,0 4.41278,-2.20109 4.41278,-4.89131l0,-29.34786c0,-2.69022 -1.98575,-4.89131 -4.41278,-4.89131l0,0z" class="st0"/>
     </g>
    </g>
    <g>
     <path stroke-miterlimit="10" stroke-width="0.2" stroke="#FFFFFF" fill="#FFFFFF" d="m42.35076,10.30724c0,0.82174 -0.22064,1.47718 -0.66192,1.95652c-0.49423,0.57717 -1.14732,0.87065 -1.94162,0.87065c-0.76782,0 -1.41209,-0.29348 -1.95045,-0.88044c-0.53836,-0.58696 -0.80313,-1.32065 -0.80313,-2.18152c0,-0.87065 0.26477,-1.59457 0.80313,-2.18152c0.53836,-0.58696 1.18262,-0.88044 1.95045,-0.88044c0.3795,0 0.74135,0.07826 1.08554,0.24457c0.3442,0.1663 0.61779,0.38152 0.8296,0.65544l-0.46775,0.51848c-0.35302,-0.45978 -0.8296,-0.69457 -1.44739,-0.69457c-0.55601,0 -1.04141,0.21522 -1.44739,0.65544c-0.40598,0.43044 -0.60896,0.99783 -0.60896,1.69239s0.20299,1.26196 0.60896,1.69239c0.40598,0.43044 0.89138,0.65544 1.44739,0.65544c0.59131,0 1.08554,-0.21522 1.48269,-0.65544c0.25594,-0.2837 0.40598,-0.68478 0.44128,-1.19348l-1.92397,0l0,-0.71413l2.56824,0c0.01765,0.15652 0.0353,0.30326 0.0353,0.44022z" class="st1"/>
     <path stroke-miterlimit="10" stroke-width="0.2" stroke="#FFFFFF" fill="#FFFFFF" d="m46.41934,7.86159l-2.40938,0l0,1.8587l2.17109,0l0,0.70435l-2.17109,0l0,1.8587l2.40938,0l0,0.72391l-3.08894,0l0,-5.86957l3.08894,0l0,0.72391z" class="st1"/>
     <path stroke-miterlimit="10" stroke-width="0.2" stroke="#FFFFFF" fill="#FFFFFF" d="m49.28764,13.00724l-0.67957,0l0,-5.14566l-1.48269,0l0,-0.72391l3.63613,0l0,0.72391l-1.48269,0l0,5.14566l0.00883,0z" class="st1"/>
     <path stroke-miterlimit="10" stroke-width="0.2" stroke="#FFFFFF" fill="#FFFFFF" d="m53.40035,13.00724l0,-5.86957l0.67957,0l0,5.86957l-0.67957,0z" class="st1"/>
     <path stroke-miterlimit="10" stroke-width="0.2" stroke="#FFFFFF" fill="#FFFFFF" d="m57.09826,13.00724l-0.67957,0l0,-5.14566l-1.48269,0l0,-0.72391l3.63613,0l0,0.72391l-1.48269,0l0,5.14566l0.00883,0z" class="st1"/>
     <path stroke-miterlimit="10" stroke-width="0.2" stroke="#FFFFFF" fill="#FFFFFF" d="m65.46488,12.2442c-0.52071,0.59674 -1.16497,0.89022 -1.94162,0.89022c-0.77665,0 -1.42091,-0.29348 -1.94162,-0.89022c-0.52071,-0.59674 -0.77665,-1.32065 -0.77665,-2.17174s0.25594,-1.58478 0.77665,-2.17174c0.52071,-0.59674 1.16497,-0.89022 1.94162,-0.89022c0.76782,0 1.41209,0.29348 1.94162,0.89022c0.52071,0.59674 0.78547,1.32065 0.78547,2.17174c-0.00883,0.86087 -0.26477,1.58478 -0.78547,2.17174zm-3.38019,-0.48913c0.38832,0.44022 0.87373,0.65544 1.43856,0.65544c0.56484,0 1.05024,-0.21522 1.43856,-0.65544c0.38832,-0.44022 0.59131,-0.99783 0.59131,-1.68261s-0.19416,-1.24239 -0.59131,-1.68261c-0.38832,-0.44022 -0.87373,-0.66522 -1.43856,-0.66522c-0.56484,0 -1.05024,0.21522 -1.43856,0.65544c-0.38832,0.45 -0.59131,1.00761 -0.59131,1.69239s0.20299,1.24239 0.59131,1.68261z" class="st1"/>
     <path stroke-miterlimit="10" stroke-width="0.2" stroke="#FFFFFF" fill="#FFFFFF" d="m67.20351,13.00724l0,-5.86957l0.8296,0l2.57706,4.56848l0.02648,0l-0.02648,-1.13478l0,-3.4337l0.67957,0l0,5.86957l-0.70604,0l-2.69179,-4.7837l-0.02648,0l0.02648,1.13478l0,3.64892l-0.68839,0z" class="st1"/>
    </g>
    <path fill="#FFFFFF" d="m60.6373,21.56704c-2.074,0 -3.76851,1.75109 -3.76851,4.15761c0,2.39674 1.69451,4.15761 3.76851,4.15761c2.074,0 3.76851,-1.76087 3.76851,-4.15761c0,-2.40652 -1.69451,-4.15761 -3.76851,-4.15761zm0,6.68153c-1.1385,0 -2.11813,-1.03696 -2.11813,-2.52392c0,-1.49674 0.97964,-2.52392 2.11813,-2.52392c1.1385,0 2.11813,1.02718 2.11813,2.52392c0,1.48696 -0.98846,2.52392 -2.11813,2.52392zm-8.22541,-6.68153c-2.074,0 -3.76851,1.75109 -3.76851,4.15761c0,2.39674 1.69451,4.15761 3.76851,4.15761c2.074,0 3.76851,-1.76087 3.76851,-4.15761c0,-2.40652 -1.69451,-4.15761 -3.76851,-4.15761zm0,6.68153c-1.1385,0 -2.11813,-1.03696 -2.11813,-2.52392c0,-1.49674 0.97964,-2.52392 2.11813,-2.52392c1.1385,0 2.11813,1.02718 2.11813,2.52392c0,1.48696 -0.97964,2.52392 -2.11813,2.52392zm-9.77871,-5.40001l0,1.76087l3.81264,0c-0.11473,0.98804 -0.4148,1.72174 -0.8649,2.22065c-0.55601,0.61631 -1.42091,1.29131 -2.93891,1.29131c-2.3476,0 -4.18331,-2.09348 -4.18331,-4.69566s1.83571,-4.69566 4.18331,-4.69566c1.26205,0 2.18874,0.54783 2.8683,1.26196l1.12084,-1.24239c-0.95316,-1.00761 -2.21521,-1.78044 -3.99797,-1.78044c-3.2125,0 -5.91312,2.89566 -5.91312,6.46631c0,3.56087 2.70062,6.46631 5.91312,6.46631c1.73863,0 3.04481,-0.62609 4.06858,-1.80978c1.05024,-1.16413 1.37679,-2.80761 1.37679,-4.12827c0,-0.41087 -0.02648,-0.79239 -0.08826,-1.10544l-5.35711,0l0,-0.00978zm39.98857,1.36957c-0.30889,-0.92935 -1.26205,-2.65109 -3.2125,-2.65109c-1.9328,0 -3.53905,1.68261 -3.53905,4.15761c0,2.32826 1.5886,4.15761 3.72438,4.15761c1.72098,0 2.71827,-1.16413 3.12424,-1.83913l-1.2797,-0.94891c-0.42363,0.69457 -1.00611,1.15435 -1.84454,1.15435c-0.83843,0 -1.43856,-0.43044 -1.81806,-1.26196l5.02174,-2.29892l-0.17651,-0.46957zm-5.11882,1.38913c-0.04413,-1.60435 1.12084,-2.42609 1.95927,-2.42609c0.65309,0 1.2091,0.36196 1.39444,0.88044l-3.35371,1.54565zm-4.0774,4.03044l1.65038,0l0,-12.22828l-1.65038,0l0,12.22828zm-2.70062,-7.14131l-0.06178,0c-0.37067,-0.48913 -1.07672,-0.92935 -1.97692,-0.92935c-1.87984,0 -3.60082,1.82935 -3.60082,4.17718c0,2.32826 1.72098,4.14783 3.60082,4.14783c0.89138,0 1.60625,-0.44022 1.97692,-0.94891l0.05295,0l0,0.59674c0,1.59457 -0.76782,2.44566 -2.0034,2.44566c-1.00611,0 -1.63273,-0.80217 -1.88867,-1.47718l-1.43856,0.66522c0.4148,1.10544 1.50917,2.45544 3.32723,2.45544c1.9328,0 3.56552,-1.26196 3.56552,-4.3337l0,-7.47392l-1.56212,0l0,0.675l0.00883,0zm-1.89749,5.75218c-1.1385,0 -2.09166,-1.05652 -2.09166,-2.50435c0,-1.46739 0.95316,-2.5337 2.09166,-2.5337c1.12084,0 2.0034,1.07609 2.0034,2.5337c0.00883,1.44783 -0.87373,2.50435 -2.0034,2.50435zm21.52552,-10.83914l-3.94502,0l0,12.22828l1.65038,0l0,-4.63696l2.30347,0c1.82689,0 3.61848,-1.46739 3.61848,-3.79566s-1.80924,-3.79566 -3.6273,-3.79566zm0.0353,5.88914l-2.33877,0l0,-4.19674l2.33877,0c1.23558,0 1.9328,1.13478 1.9328,2.09348c0,0.9587 -0.69722,2.10326 -1.9328,2.10326zm10.18468,-1.75109c-1.19145,0 -2.42703,0.58696 -2.93891,1.86848l1.46504,0.675c0.30889,-0.675 0.89138,-0.9 1.50034,-0.9c0.85608,0 1.72098,0.56739 1.72981,1.575l0,0.12717c-0.30007,-0.18587 -0.93551,-0.46957 -1.72098,-0.46957c-1.57977,0 -3.1772,0.9587 -3.1772,2.74892c0,1.6337 1.28853,2.69022 2.73592,2.69022c1.10319,0 1.72098,-0.54783 2.10048,-1.19348l0.05295,0l0,0.94891l1.5886,0l0,-4.68588c0.00883,-2.17174 -1.45622,-3.38479 -3.33606,-3.38479zm-0.20299,6.70109c-0.53836,0 -1.28853,-0.30326 -1.28853,-1.03696c0,-0.93913 0.93551,-1.30109 1.74746,-1.30109c0.7237,0 1.06789,0.17609 1.50034,0.41087c-0.12356,1.125 -1.00611,1.92718 -1.95927,1.92718zm9.33743,-6.43696l-1.88867,5.30218l-0.05295,0l-1.95927,-5.30218l-1.77394,0l2.93891,7.41523l-1.67685,4.11848l1.72098,0l4.52751,-11.53371l-1.83571,0zm-14.82692,7.8261l1.65038,0l0,-12.22828l-1.65038,0l0,12.22828z" class="st2"/>
    <g>
     <path fill="url(#svg_13)" d="m9.71388,7.66593c-0.25594,0.30326 -0.40598,0.77283 -0.40598,1.36957l0,21.63916c0,0.60652 0.15003,1.07609 0.40598,1.36957l0.06178,0.06848l10.93486,-12.11088l0,-0.14674l0,-0.14674l-10.93486,-12.11088l-0.06178,0.06848z" class="st3"/>
     <path fill="url(#svg_12)" d="m24.35547,24.04204l-3.64495,-4.04022l0,-0.14674l0,-0.14674l3.64495,-4.04022l0.07943,0.04891l4.31569,2.71957c1.23558,0.77283 1.23558,2.04457 0,2.82718l-4.31569,2.71957l-0.07943,0.0587z" class="st4"/>
     <path fill="url(#svg_10)" d="m24.4349,23.99313l-3.72438,-4.13805l-10.99664,12.18914c0.40598,0.47935 1.07672,0.53804 1.83571,0.0587l12.8853,-8.10979" class="st5"/>
     <path fill="url(#svg_9)" d="m24.4349,15.72681l-12.89413,-8.11957c-0.759,-0.47935 -1.42974,-0.42065 -1.83571,0.0587l11.00546,12.18914l3.72438,-4.12827z" class="st6"/>
     <g>
      <path enable-background="new" opacity="0.2" d="m24.35547,23.8953l-12.8147,8.07066c-0.71487,0.45 -1.35913,0.42065 -1.76511,0.00978l0,0l-0.06178,0.06848l0,0l0.06178,0.06848l0,0c0.4148,0.41087 1.05024,0.44022 1.76511,-0.00978l12.89413,-8.11957l-0.07943,-0.08804z" class="st7"/>
      <path enable-background="new" opacity="0.12" d="m9.71388,31.90727c-0.25594,-0.30326 -0.40598,-0.77283 -0.40598,-1.36957l0,0.14674c0,0.60652 0.15003,1.07609 0.40598,1.36957l0.06178,-0.06848l-0.06178,-0.07826z" class="st8"/>
     </g>
     <path enable-background="new" opacity="0.12" d="m28.75059,21.12682l-4.40395,2.76848l0.07943,0.08804l4.31569,-2.71957c0.61779,-0.3913 0.92668,-0.9 0.92668,-1.4087l0,0c-0.04413,0.45978 -0.35302,0.91957 -0.91786,1.27174z" class="st8"/>
     <path enable-background="new" fill="#FFFFFF" opacity="0.25" d="m11.54077,7.74419l17.20982,10.83914c0.55601,0.35217 0.87373,0.80217 0.92668,1.27174l0,0c0,-0.5087 -0.30889,-1.02718 -0.92668,-1.4087l-17.20982,-10.83914c-1.23558,-0.77283 -2.24169,-0.12717 -2.24169,1.43805l0,0.14674c0,-1.575 1.01494,-2.22065 2.24169,-1.44783z" class="st9"/>
    </g>
   </g>
  </g>
 </g>
 <defs>
  <linearGradient gradientTransform="matrix(0.8825550079345703,0,0,-0.9782620668411255,0.5000038146972656,173.57086181640625)" y2="151.6393" x2="5.0172" y1="168.4217" x1="21.7996" gradientUnits="userSpaceOnUse" id="svg_13">
   <stop stop-color="#00A0FF" offset="0"/>
   <stop stop-color="#00A1FF" offset="0.00657"/>
   <stop stop-color="#00BEFF" offset="0.2601"/>
   <stop stop-color="#00D2FF" offset="0.5122"/>
   <stop stop-color="#00DFFF" offset="0.7604"/>
   <stop stop-color="#00E3FF" offset="1"/>
  </linearGradient>
  <linearGradient gradientTransform="matrix(0.8825550079345703,0,0,-0.9782620668411255,0.5000038146972656,173.57086181640625)" y2="157.13" x2="9.6374" y1="157.13" x1="33.8343" gradientUnits="userSpaceOnUse" id="svg_12">
   <stop stop-color="#FFE000" offset="0"/>
   <stop stop-color="#FFBD00" offset="0.4087"/>
   <stop stop-color="#FFA500" offset="0.7754"/>
   <stop stop-color="#FF9C00" offset="1"/>
  </linearGradient>
  <linearGradient gradientTransform="matrix(0.8825550079345703,0,0,-0.9782620668411255,0.5000038146972656,173.57086181640625)" y2="132.0771" x2="2.0686" y1="154.8353" x1="24.8269" gradientUnits="userSpaceOnUse" id="svg_10">
   <stop stop-color="#FF3A44" offset="0"/>
   <stop stop-color="#C31162" offset="1"/>
  </linearGradient>
  <linearGradient gradientTransform="matrix(0.8825550079345703,0,0,-0.9782620668411255,0.5000038146972656,173.57086181640625)" y2="166.7927" x2="17.4598" y1="176.9553" x1="7.2972" gradientUnits="userSpaceOnUse" id="svg_9">
   <stop stop-color="#32A071" offset="0"/>
   <stop stop-color="#2DA771" offset="0.0685"/>
   <stop stop-color="#15CF74" offset="0.4762"/>
   <stop stop-color="#06E775" offset="0.8009"/>
   <stop stop-color="#00F076" offset="1"/>
  </linearGradient>
 </defs>
</svg>