<svg width="36" height="37" viewBox="0 0 36 37" fill="none" xmlns="http://www.w3.org/2000/svg">
<rect x="0.5" y="0.5" width="35" height="36" rx="4.5" stroke="#FAFAFA"/>
<path d="M23.2731 7H12.4111C8.87596 7 6 9.87596 6 13.4111V24.2733C6 27.8082 8.87596 30.6842 12.4111 30.6842H23.2733C26.8082 30.6842 29.6842 27.8082 29.6842 24.2733V13.4111C29.6842 9.87596 26.8082 7 23.2731 7V7ZM28.2957 24.2733C28.2957 27.0426 26.0426 29.2957 23.2731 29.2957H12.4111C9.64157 29.2957 7.38847 27.0426 7.38847 24.2733V13.4111C7.38847 10.6416 9.64157 8.38847 12.4111 8.38847H23.2733C26.0426 8.38847 28.2957 10.6416 28.2957 13.4111V24.2733Z" fill="#FAFAFA"/>
<path d="M17.8421 12.2632C14.2144 12.2632 11.2632 15.2144 11.2632 18.8421C11.2632 22.4698 14.2144 25.4211 17.8421 25.4211C21.4698 25.4211 24.4211 22.4698 24.4211 18.8421C24.4211 15.2144 21.4698 12.2632 17.8421 12.2632ZM17.8421 24.0105C14.9924 24.0105 12.6737 21.692 12.6737 18.8421C12.6737 15.9924 14.9924 13.6737 17.8421 13.6737C20.692 13.6737 23.0105 15.9924 23.0105 18.8421C23.0105 21.692 20.692 24.0105 17.8421 24.0105Z" fill="#FAFAFA"/>
<path d="M24.6843 10.1577C23.6685 10.1577 22.8423 10.9841 22.8423 11.9997C22.8423 13.0155 23.6685 13.8419 24.6843 13.8419C25.7001 13.8419 26.5265 13.0155 26.5265 11.9997C26.5265 10.9839 25.7001 10.1577 24.6843 10.1577ZM24.6843 12.5052C24.4057 12.5052 24.1788 12.2784 24.1788 11.9997C24.1788 11.7209 24.4057 11.4943 24.6843 11.4943C24.9631 11.4943 25.1899 11.7209 25.1899 11.9997C25.1899 12.2784 24.9631 12.5052 24.6843 12.5052Z" fill="#FAFAFA"/>
</svg>
