<svg width="72" height="72" viewBox="0 0 72 72" fill="none" xmlns="http://www.w3.org/2000/svg">
<rect x="0.5" y="0.5" width="71" height="71" rx="1.5" fill="#FAFAFA" stroke="#B12116"/>
<circle cx="36" cy="36" r="21" stroke="#B12116" stroke-width="2" stroke-linejoin="round"/>
<path d="M15.2002 35C14.6479 35 14.2002 35.4477 14.2002 36C14.2002 36.5523 14.6479 37 15.2002 37L15.2002 35ZM38.9073 36.7071C39.2978 36.3166 39.2978 35.6834 38.9073 35.2929L32.5433 28.9289C32.1528 28.5384 31.5197 28.5384 31.1291 28.9289C30.7386 29.3195 30.7386 29.9526 31.1291 30.3431L36.786 36L31.1291 41.6569C30.7386 42.0474 30.7386 42.6805 31.1291 43.0711C31.5197 43.4616 32.1528 43.4616 32.5433 43.0711L38.9073 36.7071ZM15.2002 37L38.2002 37L38.2002 35L15.2002 35L15.2002 37Z" fill="#B12116"/>
</svg>
