<svg width="26" height="26" viewBox="0 0 26 26" fill="none" xmlns="http://www.w3.org/2000/svg">
<path d="M13 0C7.70398 0 3.39551 4.30847 3.39551 9.60452C3.39551 11.348 4.17743 13.2232 4.2102 13.3023C4.46274 13.9017 4.96104 14.8328 5.32037 15.3785L11.9057 25.3565C12.1752 25.7655 12.574 26 13 26C13.426 26 13.8249 25.7655 14.0944 25.3571L20.6803 15.3785C21.0401 14.8328 21.5379 13.9017 21.7904 13.3023C21.8232 13.2237 22.6045 11.3486 22.6045 9.60452C22.6045 4.30847 18.2961 0 13 0ZM20.7486 12.8638C20.5232 13.4011 20.0593 14.2672 19.7368 14.7565L13.1509 24.735C13.0209 24.9322 12.9797 24.9322 12.8497 24.735L6.26387 14.7565C5.94127 14.2672 5.47743 13.4006 5.252 12.8633C5.2424 12.8401 4.52545 11.1141 4.52545 9.60452C4.52545 4.93164 8.32715 1.12994 13 1.12994C17.6729 1.12994 21.4746 4.93164 21.4746 9.60452C21.4746 11.1164 20.756 12.8469 20.7486 12.8638Z" fill="white"/>
<path d="M13.0003 4.52039C10.1963 4.52039 7.91553 6.80174 7.91553 9.60514C7.91553 12.4085 10.1963 14.6899 13.0003 14.6899C15.8042 14.6899 18.085 12.4085 18.085 9.60514C18.085 6.80174 15.8042 4.52039 13.0003 4.52039ZM13.0003 13.5599C10.82 13.5599 9.04547 11.7859 9.04547 9.60514C9.04547 7.42434 10.82 5.65033 13.0003 5.65033C15.1805 5.65033 16.9551 7.42434 16.9551 9.60514C16.9551 11.7859 15.1805 13.5599 13.0003 13.5599Z" fill="white"/>
</svg>
