<svg width="26" height="26" viewBox="0 0 26 26" fill="none" xmlns="http://www.w3.org/2000/svg">
<g clip-path="url(#clip0_891:250)">
<path d="M12.8604 0C7.62117 0 3.35889 4.26228 3.35889 9.50154C3.35889 11.2264 4.13242 13.0814 4.16484 13.1596C4.41468 13.7526 4.90764 14.6737 5.26311 15.2136L11.7778 25.0846C12.0444 25.4893 12.439 25.7212 12.8604 25.7212C13.2819 25.7212 13.6764 25.4893 13.943 25.0852L20.4583 15.2136C20.8143 14.6737 21.3067 13.7526 21.5566 13.1596C21.589 13.0819 22.362 11.2269 22.362 9.50154C22.362 4.26228 18.0997 0 12.8604 0ZM20.5259 12.7259C20.3029 13.2574 19.8441 14.1143 19.5249 14.5983L13.0097 24.4698C12.8811 24.6649 12.8403 24.6649 12.7118 24.4698L6.19649 14.5983C5.87735 14.1143 5.41849 13.2569 5.19548 12.7254C5.18598 12.7024 4.47672 10.995 4.47672 9.50154C4.47672 4.87876 8.23765 1.11783 12.8604 1.11783C17.4832 1.11783 21.2441 4.87876 21.2441 9.50154C21.2441 10.9972 20.5332 12.7092 20.5259 12.7259Z" fill="#1F1D2B"/>
<path d="M12.8605 4.47192C10.0867 4.47192 7.83032 6.72882 7.83032 9.50216C7.83032 12.2755 10.0867 14.5324 12.8605 14.5324C15.6344 14.5324 17.8908 12.2755 17.8908 9.50216C17.8908 6.72882 15.6344 4.47192 12.8605 4.47192ZM12.8605 13.4146C10.7037 13.4146 8.94815 11.6596 8.94815 9.50216C8.94815 7.34475 10.7037 5.58975 12.8605 5.58975C15.0174 5.58975 16.7729 7.34475 16.7729 9.50216C16.7729 11.6596 15.0174 13.4146 12.8605 13.4146Z" fill="#1F1D2B"/>
</g>
<defs>
<clipPath id="clip0_891:250">
<rect width="25.7212" height="25.7212" fill="white"/>
</clipPath>
</defs>
</svg>
