<svg width="61" height="80" viewBox="0 0 61 80" fill="none" xmlns="http://www.w3.org/2000/svg">
<path d="M30.7083 0C22.7545 0.0086793 15.1289 3.17218 9.50465 8.7964C3.88042 14.4206 0.716931 22.0462 0.708252 30.0001C0.708252 52.1333 28.3871 78.4376 29.5648 79.547C29.8742 79.838 30.2829 80 30.7076 80C31.1324 80 31.5411 79.838 31.8505 79.547C33.0282 78.4376 60.707 52.1319 60.707 30.0001C60.6983 22.0464 57.535 14.4211 51.9111 8.79688C46.2872 3.1727 38.6619 0.00904086 30.7083 0V0ZM30.7083 46.6655C27.4116 46.6655 24.189 45.688 21.4479 43.8564C18.7069 42.0249 16.5705 39.4217 15.3089 36.376C14.0473 33.3303 13.7172 29.9788 14.3604 26.7455C15.0035 23.5122 16.591 20.5422 18.9221 18.2111C21.2532 15.88 24.2232 14.2925 27.4565 13.6494C30.6898 13.0062 34.0412 13.3363 37.087 14.5979C40.1327 15.8595 42.7359 17.9959 44.5674 20.737C46.399 23.478 47.3765 26.7007 47.3765 29.9973C47.3718 34.4166 45.6142 38.6535 42.4893 41.7783C39.3644 44.9032 35.1276 46.6608 30.7083 46.6655Z" fill="#B12116"/>
</svg>
