<svg width="36" height="37" viewBox="0 0 36 37" fill="none" xmlns="http://www.w3.org/2000/svg">
<rect x="0.5" y="0.5" width="35" height="36" rx="4.5" stroke="#FAFAFA"/>
<path d="M29.9365 11.3024C29.0463 11.6929 28.0978 11.9517 27.109 12.0773C28.1263 11.4699 28.9027 10.5155 29.2677 9.36503C28.3193 9.93053 27.272 10.33 26.156 10.5529C25.2554 9.59392 23.9718 9 22.5715 9C19.8547 9 17.6675 11.2051 17.6675 13.9085C17.6675 14.2974 17.7004 14.6714 17.7812 15.0275C13.7016 14.8285 10.0916 12.8732 7.66658 9.89463C7.2432 10.6292 6.99486 11.4699 6.99486 12.375C6.99486 14.0745 7.87004 15.581 9.17457 16.4532C8.38617 16.4383 7.61272 16.2094 6.95746 15.8488C6.95746 15.8638 6.95746 15.8832 6.95746 15.9027C6.95746 18.2873 8.65844 20.2681 10.889 20.7244C10.4896 20.8336 10.0542 20.8859 9.60244 20.8859C9.28827 20.8859 8.97111 20.868 8.6734 20.8022C9.30922 22.7455 11.1134 24.1742 13.2587 24.2206C11.5892 25.5266 9.46929 26.3135 7.17438 26.3135C6.77195 26.3135 6.38598 26.2956 6 26.2462C8.17373 27.648 10.7499 28.4484 13.528 28.4484C22.558 28.4484 27.4949 20.9682 27.4949 14.4844C27.4949 14.2675 27.4875 14.0581 27.477 13.8501C28.4509 13.159 29.2692 12.2958 29.9365 11.3024Z" fill="#FAFAFA"/>
</svg>
