<svg width="36" height="37" viewBox="0 0 36 37" fill="none" xmlns="http://www.w3.org/2000/svg">
<rect x="0.5" y="0.5" width="35" height="36" rx="4.5" stroke="#FAFAFA"/>
<path fill-rule="evenodd" clip-rule="evenodd" d="M18.1022 7H18.1083C24.7828 7 30.2105 12.3127 30.2105 18.8421C30.2105 25.3715 24.7828 30.6842 18.1083 30.6842C15.6464 30.6842 13.363 29.9678 11.4489 28.7273L6.79592 30.1824L8.30454 25.7831C6.85342 23.8336 6 21.4326 6 18.8421C6 12.3112 11.4277 7 18.1022 7ZM22.8648 25.3415C23.7813 25.1446 24.9302 24.4703 25.2197 23.6573C25.5092 22.8428 25.5092 22.1491 25.4252 22.0015C25.3573 21.8843 25.197 21.8075 24.9576 21.6928C24.8952 21.663 24.8275 21.6306 24.7547 21.5942C24.4022 21.4197 22.6879 20.5768 22.3639 20.4649C22.0459 20.3456 21.7429 20.3874 21.5029 20.7245C21.4573 20.7881 21.4118 20.8518 21.3665 20.9151C21.0769 21.3201 20.7977 21.7107 20.5655 21.9597C20.354 22.1835 20.009 22.2118 19.7196 22.0925C19.688 22.0794 19.6518 22.0648 19.6113 22.0486C19.153 21.8645 18.1364 21.4561 16.9058 20.3665C15.8678 19.4475 15.1629 18.3034 14.9589 17.9602C14.7586 17.616 14.9314 17.4142 15.091 17.2277C15.094 17.2242 15.0969 17.2208 15.0999 17.2173C15.2028 17.0907 15.3027 16.9852 15.4031 16.8792C15.4753 16.8029 15.5478 16.7264 15.6219 16.6415C15.6329 16.6289 15.6436 16.6167 15.654 16.6048C15.8112 16.425 15.9048 16.3179 16.0103 16.094C16.1303 15.8628 16.0448 15.6241 15.9593 15.4481C15.9005 15.3248 15.5371 14.4479 15.2252 13.6951C15.0917 13.373 14.9676 13.0737 14.8809 12.8658C14.6484 12.3124 14.4714 12.2915 14.119 12.2766C14.1082 12.276 14.0972 12.2755 14.0862 12.2749C13.9748 12.2693 13.8521 12.2632 13.717 12.2632C13.258 12.2632 12.7796 12.3974 12.4901 12.6913C12.48 12.7016 12.4694 12.7122 12.4585 12.7233C12.0881 13.0979 11.2632 13.9324 11.2632 15.5958C11.2632 17.2624 12.4521 18.8753 12.6721 19.1738C12.6782 19.182 12.6835 19.1892 12.6881 19.1954C12.7013 19.2127 12.7262 19.2487 12.7626 19.301C13.2117 19.9479 15.3996 23.0992 18.6621 24.4435C21.4189 25.5802 22.2379 25.4743 22.8648 25.3415Z" fill="#FAFAFA"/>
</svg>
