<svg width="64" height="64" viewBox="0 0 64 64" fill="none" xmlns="http://www.w3.org/2000/svg">
<mask id="mask0_298:942" style="mask-type:alpha" maskUnits="userSpaceOnUse" x="0" y="0" width="64" height="64">
<rect width="64" height="64" fill="#C4C4C4"/>
</mask>
<g mask="url(#mask0_298:942)">
<path d="M9.74477 28.2187H22.7903C23.5165 28.2187 24.4213 28.2188 24.4213 25.0155C24.4213 23.5 21.5052 21.8123 19.5296 21.8123H9.98077C9.14431 21.7835 8.32658 22.0641 7.68404 22.6004C7.0415 23.1367 6.61926 23.8911 6.4981 24.7193C6.46058 25.167 6.51687 25.6175 6.66336 26.0422C6.80986 26.4669 7.04335 26.8564 7.3489 27.1857C7.65445 27.5151 8.02534 27.7771 8.43788 27.9549C8.85042 28.1328 9.29553 28.2227 9.74477 28.2187Z" fill="#CE4C42"/>
<path d="M60.9358 29.4997H5.84333V10.2816C5.84333 9.94181 5.70841 9.61593 5.46822 9.37561C5.22803 9.13529 4.90223 9.00019 4.56246 9H3.28158C2.94168 9 2.61571 9.13502 2.37537 9.37537C2.13502 9.61571 2 9.94168 2 10.2816L2 48.7184C2 48.8867 2.03315 49.0534 2.09755 49.2089C2.16196 49.3644 2.25636 49.5056 2.37537 49.6246C2.49437 49.7436 2.63565 49.838 2.79114 49.9024C2.94663 49.9669 3.11328 50 3.28158 50H4.56316C4.73146 50 4.89811 49.9669 5.0536 49.9024C5.20908 49.838 5.35036 49.7436 5.46937 49.6246C5.58837 49.5056 5.68278 49.3644 5.74718 49.2089C5.81159 49.0534 5.84473 48.8867 5.84473 48.7184V39.7495H58.3754V48.7177C58.3754 48.886 58.4086 49.0527 58.473 49.2082C58.5374 49.3636 58.6318 49.5049 58.7508 49.6239C58.8698 49.7429 59.0111 49.8373 59.1666 49.9017C59.3221 49.9661 59.4887 49.9993 59.657 49.9993H60.9386C61.1069 49.9993 61.2735 49.9661 61.429 49.9017C61.5845 49.8373 61.7258 49.7429 61.8448 49.6239C61.9638 49.5049 62.0582 49.3636 62.1226 49.2082C62.187 49.0527 62.2202 48.886 62.2202 48.7177V30.7798C62.22 30.6114 62.1866 30.4447 62.122 30.2892C62.0573 30.1337 61.9626 29.9924 61.8433 29.8735C61.724 29.7546 61.5825 29.6604 61.4268 29.5963C61.271 29.5321 61.1042 29.4993 60.9358 29.4997Z" fill="#CE4C42"/>
</g>
</svg>
