<svg width="64" height="64" viewBox="0 0 64 64" fill="none" xmlns="http://www.w3.org/2000/svg">
<path d="M15 29.5C13.7144 29.5 12.4577 29.8812 11.3888 30.5954C10.3199 31.3097 9.48676 32.3248 8.99479 33.5126C8.50282 34.7003 8.37409 36.0072 8.6249 37.2681C8.8757 38.529 9.49477 39.6872 10.4038 40.5962C11.3128 41.5052 12.471 42.1243 13.7319 42.3751C14.9928 42.6259 16.2997 42.4972 17.4874 42.0052C18.6752 41.5133 19.6903 40.6801 20.4046 39.6112C21.1188 38.5423 21.5 37.2856 21.5 36C21.498 34.2767 20.8126 32.6245 19.594 31.406C18.3755 30.1874 16.7233 29.502 15 29.5ZM15 39C14.4067 39 13.8266 38.8241 13.3333 38.4944C12.8399 38.1648 12.4554 37.6962 12.2284 37.1481C12.0013 36.5999 11.9419 35.9967 12.0576 35.4147C12.1734 34.8328 12.4591 34.2982 12.8787 33.8787C13.2982 33.4591 13.8328 33.1734 14.4147 33.0576C14.9967 32.9419 15.5999 33.0013 16.1481 33.2284C16.6962 33.4554 17.1648 33.8399 17.4944 34.3333C17.8241 34.8266 18 35.4067 18 36C18 36.7957 17.6839 37.5587 17.1213 38.1213C16.5587 38.6839 15.7957 39 15 39Z" fill="#CE4C42"/>
<path d="M51 29.5C49.7144 29.5 48.4577 29.8812 47.3888 30.5954C46.3199 31.3097 45.4868 32.3248 44.9948 33.5126C44.5028 34.7003 44.3741 36.0072 44.6249 37.2681C44.8757 38.529 45.4948 39.6872 46.4038 40.5962C47.3128 41.5052 48.471 42.1243 49.7319 42.3751C50.9928 42.6259 52.2997 42.4972 53.4874 42.0052C54.6752 41.5133 55.6903 40.6801 56.4045 39.6112C57.1188 38.5423 57.5 37.2856 57.5 36C57.498 34.2767 56.8126 32.6245 55.594 31.406C54.3755 30.1874 52.7233 29.502 51 29.5ZM51 39C50.4067 39 49.8266 38.8241 49.3333 38.4944C48.8399 38.1648 48.4554 37.6962 48.2284 37.1481C48.0013 36.5999 47.9419 35.9967 48.0576 35.4147C48.1734 34.8328 48.4591 34.2982 48.8787 33.8787C49.2982 33.4591 49.8328 33.1734 50.4147 33.0576C50.9967 32.9419 51.5999 33.0013 52.148 33.2284C52.6962 33.4554 53.1648 33.8399 53.4944 34.3333C53.824 34.8266 54 35.4067 54 36C54 36.7957 53.6839 37.5587 53.1213 38.1213C52.5587 38.6839 51.7956 39 51 39Z" fill="#CE4C42"/>
<path d="M59.675 24.13L48 22L38.0606 13.7531C37.0756 12.944 35.8405 12.5011 34.5658 12.5H19.9225C19.0973 12.4981 18.2824 12.6827 17.5386 13.0402C16.7949 13.3977 16.1416 13.9187 15.6276 14.5643L9.279 22H5C3.80693 22.0013 2.66311 22.4759 1.81948 23.3195C0.975854 24.1631 0.501323 25.3069 0.5 26.5V32C0.501621 33.4582 1.0816 34.8562 2.1127 35.8873C3.1438 36.9184 4.54181 37.4984 6 37.5H7.14313C6.92125 36.3428 6.95772 35.151 7.24992 34.0095C7.54213 32.8681 8.08287 31.8053 8.83348 30.8971C9.5841 29.9888 10.5261 29.2576 11.5921 28.7557C12.658 28.2538 13.8217 27.9935 15 27.9935C16.1783 27.9935 17.342 28.2538 18.4079 28.7557C19.4739 29.2576 20.4159 29.9888 21.1665 30.8971C21.9171 31.8053 22.4579 32.8681 22.7501 34.0095C23.0423 35.151 23.0788 36.3428 22.8569 37.5H43.1431C42.9212 36.3428 42.9577 35.151 43.2499 34.0095C43.5421 32.8681 44.0829 31.8053 44.8335 30.8971C45.5841 29.9888 46.5261 29.2576 47.5921 28.7557C48.658 28.2538 49.8218 27.9935 51 27.9935C52.1782 27.9935 53.342 28.2538 54.4079 28.7557C55.4739 29.2576 56.4159 29.9888 57.1665 30.8971C57.9171 31.8053 58.4579 32.8681 58.7501 34.0095C59.0423 35.151 59.0788 36.3428 58.8569 37.5H59C60.1931 37.4987 61.3369 37.0242 62.1805 36.1805C63.0241 35.3369 63.4987 34.1931 63.5 33V28.579C63.5054 27.501 63.1214 26.4574 62.4186 25.6399C61.7159 24.8225 60.7416 24.2863 59.675 24.13ZM22.5 20.5C22.5 20.8978 22.342 21.2794 22.0607 21.5607C21.7794 21.842 21.3978 22 21 22H14.4056C14.2622 22.0001 14.1218 21.9591 14.001 21.8818C13.8802 21.8045 13.7841 21.6942 13.7241 21.564C13.664 21.4337 13.6426 21.289 13.6623 21.147C13.682 21.0049 13.742 20.8715 13.8352 20.7625L18.1998 15.65C18.3407 15.4853 18.5156 15.353 18.7125 15.2624C18.9095 15.1718 19.1237 15.1249 19.3405 15.125H21C21.3978 15.125 21.7794 15.2831 22.0607 15.5644C22.342 15.8457 22.5 16.2272 22.5 16.625V20.5ZM30 27.5H28C27.6022 27.5 27.2206 27.342 26.9393 27.0607C26.658 26.7794 26.5 26.3978 26.5 26C26.5 25.6022 26.658 25.2207 26.9393 24.9394C27.2206 24.6581 27.6022 24.5 28 24.5H30C30.3978 24.5 30.7794 24.6581 31.0607 24.9394C31.342 25.2207 31.5 25.6022 31.5 26C31.5 26.3978 31.342 26.7794 31.0607 27.0607C30.7794 27.342 30.3978 27.5 30 27.5ZM41.8099 22.0368L27.4965 22.0035C27.0993 22.0026 26.7186 21.8441 26.4381 21.5629C26.1576 21.2817 26 20.9007 26 20.5035V16.625C26 16.2272 26.158 15.8457 26.4393 15.5644C26.7206 15.2831 27.1022 15.125 27.5 15.125H34.6935C35.0307 15.125 35.358 15.2387 35.6226 15.4475L42.2761 20.6975C42.3988 20.7941 42.4882 20.9265 42.532 21.0763C42.5758 21.2262 42.5718 21.3859 42.5204 21.5334C42.4691 21.6808 42.3731 21.8085 42.2457 21.8988C42.1183 21.989 41.966 22.0372 41.8099 22.0368Z" fill="#CE4C42"/>
</svg>
