<svg width="64" height="64" viewBox="0 0 64 64" fill="none" xmlns="http://www.w3.org/2000/svg">
<mask id="mask0_298:940" style="mask-type:alpha" maskUnits="userSpaceOnUse" x="0" y="0" width="64" height="64">
<rect width="64" height="64" fill="#C4C4C4"/>
</mask>
<g mask="url(#mask0_298:940)">
<path d="M47.7269 31.8636H43.7389V17.4844C44.5381 17.2493 45.2347 16.7515 45.716 16.0716C46.1974 15.3917 46.4354 14.5693 46.3917 13.7374V7.54871C46.4335 7.07444 46.3709 6.59678 46.2085 6.14925C46.046 5.70173 45.7875 5.29518 45.4513 4.95815C45.115 4.62112 44.709 4.36178 44.2619 4.19832C43.8147 4.03486 43.3372 3.97124 42.8628 4.01194H21.644C19.4538 4.01194 17.2136 5.35498 17.2136 7.54871V13.7365C17.2576 14.5476 17.53 15.3298 17.9994 15.9928C18.4688 16.6558 19.116 17.1725 19.8664 17.4835V31.8636H16.7809C16.0493 31.8636 15.0033 32.0169 15.0033 32.7476V35.4004C14.9904 35.5779 15.0158 35.7561 15.0779 35.9229C15.14 36.0896 15.2372 36.2411 15.3631 36.367C15.4889 36.4928 15.6404 36.5901 15.8072 36.6522C15.974 36.7142 16.1522 36.7397 16.3297 36.7268V59.7153C16.4108 59.9156 16.5318 60.0973 16.6855 60.2493C16.8391 60.4012 17.0221 60.5203 17.2233 60.5993H19.8761C20.1205 60.5993 19.8664 59.9588 19.8664 59.7153V44.2418H43.7389V59.7144C43.82 59.9147 43.9411 60.0964 44.0947 60.2484C44.2484 60.4004 44.4314 60.5195 44.6325 60.5984H47.2853C47.5298 60.5984 47.2757 59.958 47.2757 59.7144V36.7259C47.4532 36.7388 47.6314 36.7134 47.7982 36.6513C47.9649 36.5892 48.1164 36.4919 48.2423 36.3661C48.3681 36.2402 48.4654 36.0888 48.5275 35.922C48.5896 35.7552 48.615 35.577 48.6021 35.3995V32.7476C48.6021 32.0169 48.4584 31.8636 47.7269 31.8636ZM22.5183 18.159H41.0861V31.8636H22.5183V18.159ZM43.7389 41.5891H19.8664V37.1683H43.7389V41.5891Z" fill="#B12116"/>
</g>
</svg>
