<svg width="64" height="64" viewBox="0 0 64 64" fill="none" xmlns="http://www.w3.org/2000/svg">
<mask id="mask0_298:946" style="mask-type:alpha" maskUnits="userSpaceOnUse" x="0" y="0" width="64" height="64">
<rect width="64" height="64" fill="#C4C4C4"/>
</mask>
<g mask="url(#mask0_298:946)">
<path d="M50.3836 13.615C45.5078 8.73921 38.8948 6 31.9993 6C25.1039 6 18.4908 8.73921 13.615 13.615C8.73921 18.4908 6 25.1039 6 31.9993C6 38.8948 8.73921 45.5078 13.615 50.3836C18.4908 55.2594 25.1039 57.9987 31.9993 57.9987C38.8948 57.9987 45.5078 55.2594 50.3836 50.3836C55.2594 45.5078 57.9987 38.8948 57.9987 31.9993C57.9987 25.1039 55.2594 18.4908 50.3836 13.615ZM42.7542 30.4749V33.5214H30.4756V21.2453H33.5222V30.4756L42.7542 30.4749Z" fill="#CE4C42"/>
<path d="M31.9993 23.3331C32.8696 23.3331 33.575 22.6276 33.575 21.7574C33.575 20.8872 32.8696 20.1817 31.9993 20.1817C31.1291 20.1817 30.4236 20.8872 30.4236 21.7574C30.4236 22.6276 31.1291 23.3331 31.9993 23.3331Z" fill="white"/>
<path d="M43.0291 33.575C43.8993 33.575 44.6048 32.8696 44.6048 31.9993C44.6048 31.1291 43.8993 30.4236 43.0291 30.4236C42.1589 30.4236 41.4534 31.1291 41.4534 31.9993C41.4534 32.8696 42.1589 33.575 43.0291 33.575Z" fill="white"/>
</g>
</svg>
