<svg width="64" height="64" viewBox="0 0 64 64" fill="none" xmlns="http://www.w3.org/2000/svg">
<path d="M21.5665 27.5762V27.5791C21.5665 28.016 21.9206 28.3687 22.3575 28.3687C22.7945 28.3687 23.1486 28.013 23.1486 27.5762C23.1486 27.1393 22.7944 26.7852 22.3575 26.7852C21.9206 26.7852 21.5665 27.1393 21.5665 27.5762Z" fill="#CE4C42"/>
<path d="M16.5341 29.8123V29.8182C16.5341 30.2551 16.8881 30.6063 17.3251 30.6063C17.7621 30.6063 18.1161 30.2492 18.1161 29.8122C18.1161 29.3752 17.762 29.0212 17.3251 29.0212C16.8883 29.0213 16.5341 29.3754 16.5341 29.8123Z" fill="#CE4C42"/>
<path d="M19.8406 33.4629V33.4688C19.8406 33.9057 20.1948 34.2569 20.6317 34.2569C21.0685 34.2569 21.4227 33.8998 21.4227 33.4628C21.4227 33.0259 21.0685 32.6718 20.6317 32.6718C20.1948 32.6718 19.8406 33.0261 19.8406 33.4629Z" fill="#CE4C42"/>
<path d="M42.4036 30.361C42.4036 29.9241 42.0495 29.5699 41.6126 29.5699C41.1756 29.5699 40.8216 29.9241 40.8216 30.361V30.3669C40.8216 30.8037 41.1757 31.1549 41.6126 31.1549C42.0495 31.1549 42.4036 30.7978 42.4036 30.361Z" fill="#CE4C42"/>
<path d="M47.2166 35.18C47.2166 34.7431 46.8625 34.389 46.4256 34.389C45.9887 34.389 45.6346 34.7431 45.6346 35.18V35.1829C45.6346 35.6198 45.9887 35.9726 46.4256 35.9726C46.8625 35.9726 47.2166 35.6168 47.2166 35.18Z" fill="#CE4C42"/>
<path d="M44.1296 39.0322C44.1296 38.5954 43.7754 38.2412 43.3386 38.2412C42.9017 38.2412 42.5475 38.5954 42.5475 39.0322V39.0352C42.5475 39.472 42.9017 39.8247 43.3386 39.8247C43.7754 39.8247 44.1296 39.4692 44.1296 39.0322Z" fill="#CE4C42"/>
<path d="M30.1331 12.0761L20.3219 9.44822C19.6422 9.26744 18.9416 9.66042 18.728 10.3382L11.7799 31.9392C10.8102 34.9506 12.0723 38.2999 14.7927 40.1306L12.7605 47.7136L8.31355 50.6147C7.73231 50.994 6.93644 51.5137 7.06343 52.3122C7.18124 53.0529 7.99208 53.2712 8.25923 53.3431L13.4463 54.734L18.6325 56.1217C18.7579 56.1554 19.0039 56.2214 19.2784 56.2214C19.5881 56.2214 19.9342 56.1374 20.1849 55.8284C20.6948 55.1999 20.2638 54.3506 19.9493 53.7311L17.5506 48.9951L19.5831 41.4111C22.8542 41.1856 25.6212 38.9167 26.2859 35.8242L26.8256 33.3212C26.9177 32.8941 26.6462 32.4732 26.2192 32.3811C25.7924 32.2894 25.3713 32.5605 25.2792 32.9877L24.7395 35.4912C24.1946 38.0255 21.8069 39.849 19.0469 39.849C19.0244 39.849 18.263 39.8979 17.4906 39.6478C17 39.5146 16.531 39.3232 16.0969 39.0784C13.667 37.7102 12.4848 34.9116 13.2859 32.4238L16.0691 23.7712C16.8044 23.8521 17.8314 23.9315 19.0327 23.9315C21.5033 23.9315 24.7059 23.5955 27.5973 22.2465L26.0681 29.3402C25.9761 29.7672 26.2476 30.188 26.6747 30.2801C27.1008 30.3722 27.5225 30.1007 27.6146 29.6735L31.0685 13.6517C31.2236 12.9508 30.8131 12.2589 30.1331 12.0761ZM16.2269 40.8907C16.2296 40.8917 16.2325 40.8921 16.2352 40.8932C16.5098 41.0026 16.792 41.0975 17.0813 41.176C17.368 41.2518 17.6592 41.3102 17.9528 41.3524C17.9554 41.3528 17.9579 41.3539 17.9606 41.3542L15.9442 48.8778C15.8937 49.066 15.9146 49.2662 16.0026 49.44L18.5383 54.4465C18.5407 54.4512 18.5433 54.4561 18.5456 54.4608L13.8557 53.2058L9.16531 51.948C9.16964 51.9453 9.17386 51.9424 9.17818 51.9396L13.8785 48.8733C14.0418 48.7668 14.1599 48.6037 14.2104 48.4156L16.2269 40.8907ZM28.0324 20.2283C24.0834 22.5903 19.0109 22.4698 16.5641 22.2324L20.1631 11.0435L29.4748 13.5377L28.0324 20.2283Z" fill="#CE4C42"/>
<path d="M55.5297 53.3322L52.4901 52.06C51.7637 51.7559 51.4605 51.4358 51.288 50.7908L49.1775 42.9157C51.8977 41.0866 53.1595 37.7374 52.1904 34.7244L45.2442 13.1228C45.023 12.4446 44.3224 12.0537 43.6467 12.2334L33.8361 14.864C33.1647 15.0445 32.7534 15.7317 32.9006 16.4323L36.0736 31.1445C36.1658 31.5716 36.5878 31.8429 37.0136 31.751C37.4407 31.6589 37.7122 31.2381 37.6202 30.8111L36.3809 25.0619C39.0759 26.4173 42.401 27.3148 45.6082 27.5206C46.042 27.5476 46.4613 27.5611 46.8647 27.5611C47.3351 27.5611 47.7815 27.5408 48.2067 27.5041L50.6841 35.2087C51.4848 37.6981 50.3028 40.4967 47.8709 41.8644C47.4408 42.1084 46.9728 42.2994 46.483 42.4315C45.8518 42.6269 45.465 42.6533 44.9217 42.6367C42.1423 42.6367 39.7556 40.8156 39.2317 38.2845L38.4072 34.3077C38.3185 33.8799 37.8998 33.6052 37.4721 33.6936C37.0443 33.7823 36.7694 34.2009 36.8581 34.6288L37.6825 38.6054C38.3237 41.7036 41.0917 43.9755 44.3869 44.1991L46.4977 52.0752C46.6704 52.7195 46.568 53.1487 46.0925 53.7755L44.0969 56.3969C43.2912 57.4548 43.422 58.1234 43.6735 58.498C43.8138 58.7068 44.1171 59 44.7138 59C44.8938 59 45.1005 58.9733 45.3374 58.9096L55.7089 56.1284C56.7341 55.8561 56.9249 55.2676 56.9474 54.9411C56.9784 54.491 56.7575 53.8468 55.5297 53.3322ZM45.7082 25.9416C42.2228 25.718 38.5998 24.6283 35.9391 23.0126L34.4958 16.325L43.8089 13.8278L47.7084 25.9543C47.0909 25.9892 46.4148 25.9858 45.7082 25.9416ZM45.4406 57.244L47.3525 54.7328C48.1271 53.7114 48.3286 52.7941 48.026 51.6656L46.0093 44.1407C46.0127 44.1402 46.0159 44.1392 46.0191 44.1385C46.3119 44.0958 46.6036 44.0366 46.8926 43.9599C47.1802 43.8822 47.4612 43.7879 47.7344 43.6792C47.7373 43.6782 47.7404 43.6775 47.7433 43.6764L49.7596 51.1998C50.0618 52.3303 50.6956 53.0241 51.8791 53.5193L54.7885 54.7371L45.4406 57.244Z" fill="#CE4C42"/>
<path d="M34.0854 8.34441V5.79102C34.0854 5.35416 33.7312 5 33.2944 5C32.8574 5 32.5034 5.35416 32.5034 5.79102V8.34441C32.5034 8.78127 32.8574 9.13543 33.2944 9.13543C33.7313 9.13543 34.0854 8.78127 34.0854 8.34441Z" fill="#CE4C42"/>
<path d="M29.3881 7.21021C29.0794 6.90108 28.5785 6.90066 28.2694 7.20926C27.9602 7.51786 27.9597 8.01884 28.2685 8.32797L30.0714 10.134C30.226 10.2887 30.4286 10.3662 30.6313 10.3662C30.8335 10.3662 31.0357 10.2891 31.1901 10.135C31.4994 9.82636 31.4998 9.32549 31.1911 9.01626L29.3881 7.21021Z" fill="#CE4C42"/>
<path d="M35.9603 10.3662C36.163 10.3662 36.3656 10.2888 36.5201 10.1341L38.3231 8.32803C38.6318 8.0189 38.6314 7.51803 38.3221 7.20932C38.0128 6.90051 37.5119 6.90104 37.2034 7.21027L35.4005 9.01632C35.0918 9.32555 35.0922 9.82632 35.4014 10.135C35.5558 10.2892 35.7581 10.3662 35.9603 10.3662Z" fill="#CE4C42"/>
</svg>
