<svg width="64" height="64" viewBox="0 0 64 64" fill="none" xmlns="http://www.w3.org/2000/svg">
<mask id="mask0_298:954" style="mask-type:alpha" maskUnits="userSpaceOnUse" x="0" y="0" width="64" height="64">
<rect width="64" height="64" fill="#C4C4C4"/>
</mask>
<g mask="url(#mask0_298:954)">
<path d="M23.0146 33.2606C23.0536 32.6295 23.0926 31.9977 23.1745 31.3596C23.3552 29.8412 23.6282 28.3353 23.992 26.8501C24.1964 26.1129 24.4179 25.3851 24.6496 24.673C24.9468 23.9779 25.237 23.2868 25.5271 22.612C26.1352 21.3329 26.8947 20.1313 27.7893 19.0332C27.9976 18.7679 28.2035 18.5105 28.4047 18.2531C28.6388 18.0191 28.8658 17.7999 29.0881 17.576C29.5142 17.1462 29.9629 16.7392 30.4321 16.3568C31.2452 15.6965 32.115 15.1092 33.0312 14.6017C33.7126 14.1912 34.4252 13.8349 35.1624 13.5361C36.3902 13.0423 37.0868 12.7935 37.0868 12.7935C37.0868 12.7935 36.4923 13.2615 35.4541 14.0299C34.8358 14.4892 34.2412 14.9794 33.6725 15.4987C32.9335 16.1451 32.2305 16.8312 31.5663 17.5542C31.1864 17.9333 30.8916 18.4122 30.532 18.8475C30.3572 19.0706 30.1778 19.2963 29.9937 19.5246C29.8447 19.7766 29.6895 20.0293 29.5327 20.2875C28.872 21.3505 28.3054 22.4692 27.8392 23.6308C27.625 24.2502 27.4073 24.8773 27.1863 25.5123C27.035 26.1722 26.868 26.8384 26.6855 27.503C26.3833 28.8853 26.163 30.2843 26.0256 31.6927C25.9476 32.2122 25.9062 32.7356 25.8571 33.2629C37.2334 33.2629 46.0386 33.2723 58.3596 33.2723C58.4009 32.7325 58.4243 32.1849 58.4243 31.6341C58.4243 21.2594 50.8625 12.7116 41.1321 11.579C41.6055 11.138 41.9351 10.5648 42.0781 9.93391C42.2212 9.30302 42.171 8.64367 41.934 8.04171C41.6971 7.43975 41.2844 6.92307 40.7498 6.55891C40.2151 6.19476 39.5832 6 38.9363 6C38.2894 6 37.6574 6.19476 37.1227 6.55891C36.5881 6.92307 36.1754 7.43975 35.9385 8.04171C35.7015 8.64367 35.6513 9.30302 35.7944 9.93391C35.9374 10.5648 36.267 11.138 36.7404 11.579C27.0108 12.7108 19.4513 21.2571 19.4513 31.6341C19.4513 32.1802 19.4708 32.7223 19.5114 33.2606H23.0146Z" fill="#B12116"/>
<path d="M61.9806 34.4611H15.9091V38.5251H61.9806V34.4611Z" fill="#B12116"/>
<path d="M43.0659 41.4106C40.7258 42.5479 32.5594 45.4926 32.5594 45.4926L22.9078 44.8881C22.9078 44.8881 28.4282 43.3529 30.5687 42.8724C30.9181 42.8262 31.2391 42.6554 31.4726 42.3914C31.7061 42.1274 31.8364 41.7879 31.8396 41.4354C31.8427 41.083 31.7184 40.7412 31.4897 40.4731C31.2609 40.205 30.943 40.0285 30.5944 39.9761C29.4095 39.9761 19.08 40.4028 19.08 40.4028L12.221 42.8724L14.0362 54.3618C14.0362 54.3618 15.4481 51.9437 16.8569 51.9437C18.2657 51.9437 30.5164 52.2697 32.1787 51.9437C33.841 51.6176 43.9723 44.6845 45.1853 43.8763C46.3983 43.0682 45.417 40.2709 43.0659 41.4106Z" fill="#B12116"/>
<path d="M2.99998 44.1072V59L13.5081 57.0327L10.8785 42.7211L2.99998 44.1072Z" fill="#B12116"/>
</g>
</svg>
