<svg width="64" height="64" viewBox="0 0 64 64" fill="none" xmlns="http://www.w3.org/2000/svg">
<mask id="mask0_298:944" style="mask-type:alpha" maskUnits="userSpaceOnUse" x="0" y="0" width="64" height="64">
<rect width="64" height="64" fill="#C4C4C4"/>
</mask>
<g mask="url(#mask0_298:944)">
<path d="M48.7692 23.0769H15.9231C13.2466 23.0769 11.0769 25.2466 11.0769 27.9231V37.0769C11.0769 39.7534 13.2466 41.9231 15.9231 41.9231H48.7692C51.4457 41.9231 53.6154 39.7534 53.6154 37.0769V27.9231C53.6154 25.2466 51.4457 23.0769 48.7692 23.0769Z" fill="#F5F5F5"/>
<path d="M18.6154 21.4615C20.3997 21.4615 21.8462 20.0151 21.8462 18.2308C21.8462 16.4465 20.3997 15 18.6154 15C16.8311 15 15.3846 16.4465 15.3846 18.2308C15.3846 20.0151 16.8311 21.4615 18.6154 21.4615Z" fill="#B12116"/>
<path d="M6.23077 36C8.01507 36 9.46154 34.5535 9.46154 32.7692C9.46154 30.9849 8.01507 29.5385 6.23077 29.5385C4.44646 29.5385 3 30.9849 3 32.7692C3 34.5535 4.44646 36 6.23077 36Z" fill="#B12116"/>
<path d="M58.4615 36C60.2458 36 61.6923 34.5535 61.6923 32.7692C61.6923 30.9849 60.2458 29.5385 58.4615 29.5385C56.6772 29.5385 55.2308 30.9849 55.2308 32.7692C55.2308 34.5535 56.6772 36 58.4615 36Z" fill="#B12116"/>
<path d="M31.5385 21.4615C33.3228 21.4615 34.7692 20.0151 34.7692 18.2308C34.7692 16.4465 33.3228 15 31.5385 15C29.7542 15 28.3077 16.4465 28.3077 18.2308C28.3077 20.0151 29.7542 21.4615 31.5385 21.4615Z" fill="#B12116"/>
<path d="M44.4615 21.4615C46.2458 21.4615 47.6923 20.0151 47.6923 18.2308C47.6923 16.4465 46.2458 15 44.4615 15C42.6772 15 41.2308 16.4465 41.2308 18.2308C41.2308 20.0151 42.6772 21.4615 44.4615 21.4615Z" fill="#B12116"/>
<path d="M18.6154 50C20.3997 50 21.8462 48.5535 21.8462 46.7692C21.8462 44.9849 20.3997 43.5385 18.6154 43.5385C16.8311 43.5385 15.3846 44.9849 15.3846 46.7692C15.3846 48.5535 16.8311 50 18.6154 50Z" fill="#B12116"/>
<path d="M31.5385 50C33.3228 50 34.7692 48.5535 34.7692 46.7692C34.7692 44.9849 33.3228 43.5385 31.5385 43.5385C29.7542 43.5385 28.3077 44.9849 28.3077 46.7692C28.3077 48.5535 29.7542 50 31.5385 50Z" fill="#B12116"/>
<path d="M44.4615 50C46.2458 50 47.6923 48.5535 47.6923 46.7692C47.6923 44.9849 46.2458 43.5385 44.4615 43.5385C42.6772 43.5385 41.2308 44.9849 41.2308 46.7692C41.2308 48.5535 42.6772 50 44.4615 50Z" fill="#B12116"/>
</g>
</svg>
