<svg width="64" height="64" viewBox="0 0 64 64" fill="none" xmlns="http://www.w3.org/2000/svg">
<g clip-path="url(#clip0_299:991)">
<g opacity="0.7">
<path d="M62.9898 32.3884L38.6354 30.3026C38.1007 30.2569 37.62 30.6288 37.5304 31.158L33.9437 52.3223C33.845 52.9039 33.281 53.279 32.704 53.1564C31.5455 52.9103 30.2522 52.9231 28.9438 53.2493C25.227 54.1755 22.799 57.2741 23.5208 60.1703C24.2425 63.0662 27.8407 64.6631 31.5574 63.7368C34.5064 63.0018 36.6422 60.8991 37.0409 58.6156L40.5585 37.8599C40.6482 37.3306 41.1288 36.9588 41.6635 37.0045L57.8192 38.3881C58.4202 38.4396 58.8489 38.9935 58.7482 39.5883L56.6347 52.059C56.536 52.641 55.9713 53.0163 55.394 52.8929C54.2334 52.645 52.9372 52.6573 51.6257 52.9841C47.9089 53.9104 45.4809 57.009 46.2027 59.9051C46.9244 62.8011 50.5225 64.398 54.2394 63.4716C55.5457 63.1461 56.7893 62.5268 57.7934 61.6245C58.2399 61.2233 58.6384 60.7664 58.9614 60.2598C59.1179 60.0143 59.2569 59.7573 59.3738 59.4905C59.7183 58.7049 59.8112 57.8823 59.9542 57.0365C60.1738 55.7379 63.8683 33.8865 63.9188 33.5881C64.0193 32.9935 63.5905 32.4399 62.9898 32.3884Z" fill="#E33A2D"/>
</g>
<path d="M15.1583 43.3549C14.5739 45.2201 13.0559 48.6101 9.51665 49.9335C9.22765 50.0415 9.22765 50.4574 9.51665 50.5654C13.0559 51.8887 14.5738 55.2787 15.1583 57.144C15.2571 57.4595 15.7055 57.4595 15.8044 57.144C16.3888 55.2787 17.9068 51.8887 21.446 50.5654C21.735 50.4574 21.735 50.0415 21.446 49.9335C17.9068 48.6101 16.3889 45.2201 15.8044 43.3549C15.7055 43.0394 15.2571 43.0394 15.1583 43.3549Z" fill="#B12116" fill-opacity="0.6"/>
<path d="M43.0509 12.2533C42.6238 13.6165 41.5144 16.094 38.9278 17.0611C38.7165 17.1401 38.7165 17.444 38.9278 17.523C41.5144 18.4901 42.6238 20.9678 43.0509 22.3309C43.1232 22.5615 43.4509 22.5615 43.5232 22.3309C43.9503 20.9676 45.0597 18.4901 47.6463 17.523C47.8575 17.444 47.8575 17.1401 47.6463 17.0611C45.0597 16.094 43.9503 13.6164 43.5232 12.2533C43.4509 12.0228 43.1232 12.0228 43.0509 12.2533Z" fill="#B12116" fill-opacity="0.6"/>
<path d="M57.0935 0.217875C56.5553 1.93562 55.1574 5.0575 51.898 6.27625C51.6319 6.37575 51.6319 6.75863 51.898 6.85825C55.1574 8.07687 56.5553 11.1989 57.0935 12.9166C57.1845 13.2071 57.5975 13.2071 57.6885 12.9166C58.2268 11.1989 59.6247 8.077 62.884 6.85825C63.1502 6.75875 63.1502 6.37587 62.884 6.27625C59.6247 5.05762 58.2268 1.93562 57.6885 0.217875C57.5975 -0.072625 57.1845 -0.072625 57.0935 0.217875Z" fill="#B12116" fill-opacity="0.6"/>
<path d="M29.2856 0.0297773L5.54014 5.82965C5.01876 5.95703 4.68214 6.4629 4.76614 6.99303L8.12489 28.1947C8.21714 28.7773 7.80251 29.3129 7.21651 29.381C6.04001 29.5177 4.81851 29.9429 3.68276 30.6697C0.456263 32.7343 -0.855237 36.446 0.753513 38.9599C2.36214 41.4739 6.28189 41.8382 9.50826 39.7737C12.0683 38.1355 13.4208 35.4609 13.0695 33.1697L9.77564 12.3773C9.69164 11.8472 10.0283 11.3412 10.5496 11.2139L26.3014 7.36653C26.8874 7.2234 27.4705 7.6114 27.5649 8.20715L29.544 20.6999C29.6364 21.283 29.221 21.8188 28.6345 21.8863C27.4555 22.022 26.231 22.4475 25.0925 23.176C21.866 25.2407 20.5546 28.9523 22.1633 31.4663C23.772 33.9803 27.6916 34.3445 30.918 32.28C31.0298 32.2085 31.14 32.1345 31.2485 32.0582C32.3626 31.2739 33.3089 30.2273 33.9048 28.9968C34.4604 27.8495 34.6389 26.6242 34.4424 25.3864C34.2699 24.3 34.0974 23.2137 33.9248 22.1273C33.6631 20.4795 30.6299 1.38003 30.5489 0.870277C30.4545 0.274527 29.8714 -0.113348 29.2856 0.0297773Z" fill="#E33A2D"/>
</g>
<defs>
<clipPath id="clip0_299:991">
<rect width="64" height="64" fill="white"/>
</clipPath>
</defs>
</svg>
