<svg width="56" height="56" viewBox="0 0 56 56" fill="none" xmlns="http://www.w3.org/2000/svg">
<path d="M39.6667 18.6667C38.3805 18.6667 37.3334 17.6196 37.3334 16.3334C37.3334 13.7597 35.2405 11.6667 32.6667 11.6667H29.1667C28.5218 11.6667 28 12.1885 28 12.8334C28 13.4783 28.5218 14.0001 29.1667 14.0001H32.6667C33.953 14.0001 35 15.0471 35 16.3334C35 18.9071 37.0929 21 39.6667 21C40.953 21 42 22.047 42 23.3333V26.8333C42 27.4782 42.5218 28 43.1667 28C43.8116 28 44.3334 27.4782 44.3334 26.8333V23.3333C44.3333 20.7596 42.2404 18.6667 39.6667 18.6667Z" fill="#CE4C42"/>
<path d="M38.5 25.6667H36.1667C35.523 25.6667 35 25.1438 35 24.5C35 22.57 33.43 21 31.5 21C30.8563 21 30.3333 20.4771 30.3333 19.8333V17.5C30.3333 16.8551 29.8115 16.3333 29.1666 16.3333C28.5217 16.3333 27.9999 16.8551 27.9999 17.5V19.8333C27.9999 21.7634 29.5699 23.3333 31.4999 23.3333C32.1436 23.3333 32.6666 23.8562 32.6666 24.5C32.6666 26.4301 34.2366 28 36.1666 28H38.5C39.1449 28 39.6667 27.4782 39.6667 26.8333C39.6667 26.1886 39.1449 25.6667 38.5 25.6667Z" fill="#CE4C42"/>
<path d="M28 0C12.5611 0 0 12.5611 0 28C0 43.4389 12.5611 56 28 56C43.4389 56 56 43.4389 56 28C56 12.5611 43.4389 0 28 0ZM28 51.3333C15.1337 51.3333 4.6667 40.8663 4.6667 28C4.6667 22.4054 6.64913 17.2675 9.94394 13.2433L27.0339 30.3333H12.8333C12.1884 30.3333 11.6666 30.8551 11.6666 31.5V36.1667C11.6666 36.8116 12.1884 37.3334 12.8333 37.3334H34.0338L42.7565 46.0562C38.7325 49.3509 33.5946 51.3333 28 51.3333ZM46.0562 42.7567L40.6328 37.3333H43.1667C43.8116 37.3333 44.3334 36.8115 44.3334 36.1666V31.5C44.3334 30.8551 43.8116 30.3333 43.1667 30.3333H33.6328L13.2433 9.94383C17.2675 6.64913 22.4054 4.6667 28 4.6667C40.8663 4.6667 51.3333 15.1337 51.3333 28C51.3333 33.5946 49.3509 38.7325 46.0562 42.7567ZM39.6667 35V32.6667H42V35H39.6667Z" fill="#CE4C42"/>
</svg>
