<svg width="64" height="64" viewBox="0 0 64 64" fill="none" xmlns="http://www.w3.org/2000/svg">
<path d="M35.6375 44.6375H17.8125C17.225 44.6375 16.675 44.8875 16.2875 45.325C14.5 47.3375 13 49.9 13 52.7625C13 59.55 17.9 62.85 18.1125 62.9875L18.575 63.3H34.875L35.3375 62.9875C35.55 62.85 40.45 59.55 40.45 52.7625C40.45 49.9 38.9375 47.3375 37.1625 45.325C36.775 44.8875 36.225 44.6375 35.6375 44.6375Z" fill="#CE4C42"/>
<path d="M53.8125 24.9V21.75C53.8125 21.0375 53.2375 20.4625 52.525 20.4625H51.3625C50.65 20.4625 50.075 21.0375 50.075 21.75V24.9C49.3625 24.9 48.7875 25.475 48.7875 26.1875V27.35C48.7875 28.0625 49.3625 28.6375 50.075 28.6375V28.9125C50.075 30.5625 48.725 31.9625 47.0625 31.9375C45.45 31.9125 44.15 30.6 44.15 28.975V18.85C44.15 15.95 41.8 13.6 38.9 13.6H36C35.1 13.6 34.25 14.025 33.725 14.7625L30.1875 19.625C29.7 19.3 29.175 19.0375 28.6 18.8625V12.375H30.825C31.8375 12.375 32.6625 11.55 32.6625 10.5375V10.45C32.6625 9.4375 31.8375 8.6125 30.825 8.6125H28.6V4.45C29.6125 4.45 30.4375 3.625 30.4375 2.6125V2.525C30.4375 1.5125 29.6125 0.6875 28.6 0.6875H24.85C23.8375 0.6875 23.0125 1.5125 23.0125 2.525V2.6125C23.0125 3.625 23.8375 4.45 24.85 4.45V8.625H22.625C21.6125 8.625 20.7875 9.45 20.7875 10.4625V10.55C20.7875 11.5625 21.6125 12.3875 22.625 12.3875H24.85V18.875C22.325 19.675 20.5 22.0375 20.5 24.8125C20.5 27.6 22.3375 29.95 24.85 30.75V33.3375C22.325 34.1375 20.5 36.5 20.5 39.275C20.5 39.2875 20.5 39.3 20.5 39.3125C20.5125 40.9625 21.875 42.2875 23.525 42.2875H29.925C31.575 42.2875 32.95 40.9625 32.95 39.3125C32.95 39.3 32.95 39.2875 32.95 39.275C32.95 36.4875 31.1125 34.125 28.6 33.3375V30.75C31.125 29.95 32.95 27.5875 32.95 24.8125C32.95 24.075 32.825 23.3625 32.5875 22.7L35.625 18.525C36.15 17.8 37 17.3625 37.9 17.3625H38.8875C39.7125 17.3625 40.3875 18.0375 40.3875 18.8625V28.8875C40.3875 32.575 43.3125 35.6375 46.9875 35.7C50.7375 35.7625 53.8 32.725 53.8 28.9875V28.65C54.5125 28.65 55.0875 28.075 55.0875 27.3625V26.2C55.1 25.475 54.525 24.9 53.8125 24.9Z" fill="#CE4C42"/>
</svg>
