<svg width="55" height="64" viewBox="0 0 55 64" fill="none" xmlns="http://www.w3.org/2000/svg">
<g clip-path="url(#clip0_340:2271)">
<path d="M50.9538 11.2176L27.0769 0L3.16483 11.2176H50.9538Z" fill="#B12116"/>
<path d="M0.738464 15.0154V21.2044C0.738464 23.8418 2.88352 26.0923 5.55605 26.0923C6.96264 26.0923 8.26374 25.4593 9.14286 24.4747C10.022 25.4593 11.2879 26.0923 12.7297 26.0923C14.1714 26.0923 15.4374 25.4593 16.3165 24.4747C17.1956 25.4593 18.4615 26.0923 19.9033 26.0923C21.3451 26.0923 22.611 25.4593 23.4901 24.4747C23.9473 25.0022 24.5099 25.4242 25.178 25.7055V36.9934C25.178 38.0132 26.022 38.8571 27.0418 38.8571H27.1473C28.167 38.8571 29.011 38.0132 29.011 36.9934V25.7055C29.644 25.4242 30.2418 25.0022 30.6989 24.4747C31.578 25.4593 32.844 26.0923 34.2857 26.0923C35.7275 26.0923 36.9934 25.4593 37.8725 24.4747C38.7517 25.4593 40.0176 26.0923 41.4593 26.0923C42.9011 26.0923 44.167 25.4593 45.0462 24.4747C45.9253 25.4593 47.1912 26.0923 48.633 26.0923C51.2703 26.0923 53.4506 23.8418 53.4506 21.2044V15.0154H0.738464Z" fill="#B12116"/>
<path d="M8.15824 44.4835C8.15824 45.5033 9.0022 46.3473 10.022 46.3473H25.1429V62.1363C25.1429 63.1561 25.9868 64 27.0066 64H27.1121C28.1319 64 28.9758 63.1561 28.9758 62.1363V46.3473H44.1319C45.1516 46.3473 45.9956 45.5033 45.9956 44.4835C45.9956 43.4638 45.1516 42.6198 44.1319 42.6198H10.022C9.0022 42.655 8.15824 43.4638 8.15824 44.4835Z" fill="#B12116"/>
<path d="M1.96923 36.712C0.914287 36.712 0.0703278 37.556 0.0703278 38.6109V62.0659C0.0703278 63.1208 0.914287 63.9648 1.96923 63.9648C3.02418 63.9648 3.86813 63.1208 3.86813 62.0659V54.1538H10.7604V62.0659C10.7604 63.1208 11.6044 63.9648 12.6593 63.9648C13.7143 63.9648 14.5582 63.1208 14.5582 62.0659V50.356H3.86813V38.6109C3.86813 37.5912 3.02418 36.712 1.96923 36.712Z" fill="#B12116"/>
<path d="M50.2857 50.3912H39.5956V62.1011C39.5956 63.156 40.4396 64 41.4945 64C42.5495 64 43.3934 63.156 43.3934 62.1011V54.189H50.2857V62.1011C50.2857 63.156 51.1297 64 52.1846 64C53.2396 64 54.0835 63.156 54.0835 62.1011V38.6462C54.0835 37.5912 53.2396 36.7473 52.1846 36.7473C51.1297 36.7473 50.2857 37.5912 50.2857 38.6462V50.3912Z" fill="#B12116"/>
</g>
<defs>
<clipPath id="clip0_340:2271">
<rect width="54.1538" height="64" fill="white"/>
</clipPath>
</defs>
</svg>
