<svg width="151" height="156" viewBox="0 0 151 156" fill="none" xmlns="http://www.w3.org/2000/svg">
<g opacity="0.4" clip-path="url(#clip0)" filter="url(#filter0_d)">
<path d="M20.9316 146.334L11.1052 81.5686L11.3889 81.4605C26.5545 74.3052 128.083 60.5249 132.462 59.9268L132.827 59.883L146.713 125.721L20.9316 146.334ZM11.8977 81.993L21.4935 145.451L145.666 125.03L132.102 60.6374C125.538 61.5712 27.382 75.0221 11.8977 81.993Z" fill="black"/>
<path d="M117.882 66.1218L28.5049 84.5376L28.6535 85.259L118.031 66.8432L117.882 66.1218Z" fill="black"/>
<path d="M19.8627 89.6661L19.1382 89.7983L27.7478 136.964L28.4723 136.832L19.8627 89.6661Z" fill="black"/>
<path d="M136.306 120.272L32.832 135.949L32.9424 136.677L136.416 121L136.306 120.272Z" fill="black"/>
<path d="M22.3472 85.638L21.6159 85.7255L20.6797 77.9009C24.5261 60.4546 64.9327 23.7245 66.6034 22.1894L66.8053 22.0169L67.0422 22.1369C67.279 22.2569 92.7487 34.2668 123.914 61.0235L123.996 61.0879L124.994 69.4245L124.262 69.512L123.3 61.4679C93.8713 36.2094 69.5073 24.1414 66.9834 22.8857C63.9727 25.6196 25.1517 61.344 21.4372 78.0327L22.3472 85.638Z" fill="black"/>
<path d="M129.294 52.6656C129.294 52.6656 129.375 52.73 129.393 52.8762C130.188 54.5613 127.698 57.307 125.129 59.3946C126.847 55.777 128.571 52.8262 129.294 52.6656ZM129.279 51.9256C127.158 52.1793 123.391 61.6053 123.391 61.6053C123.391 61.6053 131.77 56.0039 130.089 52.4962C129.89 52.0749 129.572 51.8906 129.279 51.9256Z" fill="black"/>
<path d="M21.1506 78.7346L20.4487 78.4477C19.5012 77.9677 10.789 73.9663 10.904 71.2081C10.9627 70.4593 11.4952 69.9505 12.4928 69.6086C13.701 69.1674 14.8973 69.2467 16.0085 69.8555C19.4155 71.6731 20.8906 77.8015 20.9987 78.0852L21.1506 78.7346ZM13.5778 69.998C13.2853 70.033 13.0016 70.1411 12.6447 70.258C11.9309 70.4918 11.5271 70.8368 11.5709 71.2024C11.544 72.8375 16.4892 75.732 20.0249 77.3858C19.5312 75.7389 18.0817 71.6843 15.631 70.4199C14.9935 70.0511 14.3091 69.9105 13.5778 69.998Z" fill="black"/>
<path d="M67.2236 22.412L66.4923 22.4995L65.5998 15.0405C63.5084 14.9199 62.1928 13.2229 62.1378 11.5235C61.9803 10.2072 62.8203 8.54899 65.1691 8.34211C67.4711 8.36336 68.7286 8.95464 69.0705 9.95218C69.6549 11.7366 67.0567 14.1986 66.3135 14.8067L67.2236 22.412ZM65.0373 9.09964C63.2822 9.30964 62.7553 10.4853 62.8047 11.5178C62.8978 12.916 64.0322 14.338 65.7404 14.3561C66.6854 13.5754 68.798 11.3941 68.3655 10.2591C68.1317 9.54528 67.0467 9.15589 65.1923 9.15526C65.1104 9.09089 65.1104 9.09089 65.0373 9.09964Z" fill="black"/>
<path d="M123.885 73.4826L123.173 73.6704L133.352 112.269L134.064 112.081L123.885 73.4826Z" fill="black"/>
<path d="M146.149 125.343L143.734 131.195L20.542 147.419L8.31106 83.0152L11.4968 81.7439L21.2446 145.851L146.149 125.343Z" fill="black"/>
<path d="M45.2702 86.9008C42.5545 90.8603 40.7982 94.7792 40.0188 98.8037C39.2306 102.755 39.1562 106.473 39.86 109.875C40.3419 112.042 41.1281 113.654 42.2276 114.784C43.3182 115.84 44.6314 116.276 46.1496 115.946C49.1216 115.368 51.6236 112.102 53.7461 106.285C55.8687 100.468 56.5169 95.3461 55.6175 90.9291C55.3137 89.6303 54.8987 88.6415 54.3637 87.8896C53.8287 87.1377 53.1355 86.9239 52.413 87.0846C51.1142 87.3883 50.1398 88.5434 49.4429 90.7778C48.7372 92.9392 48.5172 94.8199 48.8472 96.338C49.0516 97.4262 49.7066 97.9412 50.7392 97.8918C51.1779 97.8393 51.4236 98.0325 51.4673 98.3981C51.6192 99.0475 51.4054 99.7407 50.8348 100.551C50.2641 101.361 49.6497 101.805 48.9272 101.966C48.0584 102.144 47.2103 101.874 46.3915 101.231C45.6371 100.505 45.0846 99.6069 44.8627 98.3725C44.3283 95.7661 44.8265 93.1104 46.2665 90.2678C47.7066 87.4252 49.4416 85.8083 51.4717 85.417C52.8437 85.1045 54.0749 85.4764 55.075 86.3952C56.075 87.314 56.8438 88.7796 57.2176 90.6635C57.9563 94.358 57.7882 98.5319 56.5581 103.13C55.3281 107.727 53.5074 111.728 50.941 115.076C48.3747 118.424 45.7883 120.366 43.0357 120.918C40.9325 121.318 39.0168 120.805 37.2067 119.316C35.4698 117.818 34.321 115.656 33.6872 112.839C33.1091 109.867 33.0254 106.687 33.591 103.356C34.1567 100.024 35.123 96.9418 36.5718 94.1723C38.0118 91.3297 39.2087 89.5546 40.2182 88.6921C41.2276 87.8296 42.857 87.1896 45.0246 86.7077L45.2702 86.9008Z" fill="black"/>
<path d="M69.845 98.8694C70.6294 97.3662 71.4488 96.1556 72.3207 95.3836C73.1107 94.5474 74.1639 94.0505 75.3164 93.7642C76.8346 93.4342 78.139 93.7974 79.3672 94.763C80.5223 95.7374 81.3554 97.1212 81.7292 99.0051C82.4242 102.334 81.9229 105.583 80.1522 108.762C78.4634 112.006 76.2427 113.903 73.5632 114.446C72.8407 114.607 72.1738 114.613 71.7263 114.592C71.27 114.498 70.65 114.276 69.7756 113.787C69.7037 118.765 69.8018 122.685 70.0699 125.545L64.6228 127.755C64.2041 120.536 64.1422 113.2 64.2822 105.692C62.8597 108.68 61.8178 110.511 61.3115 111.239L60.8083 111.374L60.4171 109.344C62.6472 105.665 64.2222 101.471 65.1423 96.7618L70.0219 94.7686L69.845 98.8694ZM69.7062 111.347C70.7325 112.486 71.7531 112.957 72.695 112.77C74.2132 112.44 75.3076 111.048 75.9696 108.521C76.6315 105.994 76.7902 103.601 76.3083 101.434C76.0952 100.273 75.6246 99.4388 75.0252 98.7688C74.4345 98.1719 73.7414 97.9581 73.0101 98.0456C72.4338 98.1888 71.8838 98.5513 71.3688 99.2063C70.8538 99.8613 70.4937 100.572 70.2887 101.338C70.0837 102.105 70.0131 103.374 69.9393 105.237L69.7062 111.347Z" fill="black"/>
<path d="M101.495 103.019C99.9849 105.277 98.5599 107.005 97.2198 108.204C95.8798 109.402 94.3409 110.18 92.5303 110.545C90.5002 110.936 88.757 110.626 87.2276 109.622C85.6981 108.618 84.7656 107.024 84.2837 104.856C83.6062 101.673 84.1337 98.6432 85.7756 95.6281C87.4176 92.613 89.5827 90.8704 92.2534 90.2542C93.6253 89.9417 94.8304 90.0942 95.7867 90.6473C96.743 91.2005 97.3599 92.0167 97.6461 93.1693C98.3149 96.2788 95.5029 99.4339 89.3651 102.69C90.5839 105.437 92.4321 106.625 94.9654 106.1C95.9804 105.904 96.8142 105.434 97.6217 104.743C98.4292 104.053 99.5149 102.588 100.961 100.413L101.495 103.019ZM88.9708 101.254C92.534 99.4183 94.0997 97.0057 93.4572 94.1156C93.1359 92.6705 92.4722 92.0824 91.4571 92.278C90.4421 92.4736 89.6696 93.4562 89.122 95.0794C88.5189 96.8575 88.4626 98.867 88.9708 101.254Z" fill="black"/>
<path d="M123.498 98.4575C120.826 102.783 118.228 105.245 115.768 105.762C114.753 105.957 113.913 105.761 113.103 105.19C112.366 104.611 111.814 103.713 111.601 102.551C111.262 100.96 111.395 98.3481 112.089 94.853C112.455 92.9548 112.535 91.7585 112.473 91.2466C112.339 90.7435 112.166 90.5416 111.736 90.6672C111.517 90.6935 111.242 90.8747 110.976 91.1291C110.71 91.3835 110.388 91.7929 110.066 92.2023C109.744 92.6116 109.431 93.0942 109.062 93.7317C108.749 94.2142 108.444 94.7699 108.076 95.4074L107.098 97.1562C106.674 97.9487 106.469 98.715 106.492 99.5282C106.503 100.862 106.643 102.032 106.774 103.129C106.871 103.933 107.075 105.021 107.379 106.32L102.672 108.515C102.061 106.512 101.74 105.066 101.471 104.06C100.963 101.673 100.756 99.3244 100.932 97.0781C101.035 94.8405 101.46 92.1935 102.152 89.2921L107.379 87.1089C106.887 90.4316 106.599 92.9879 106.599 94.8424C108.507 91.5729 110.017 89.3153 111.266 87.979C112.516 86.6427 113.68 85.8358 114.768 85.6314C115.491 85.4708 116.248 85.6026 116.83 86.1264C117.477 86.5683 117.857 87.2646 118.035 88.1334C118.356 89.5784 118.206 92.0441 117.594 95.6036C117.142 98.0312 117.033 99.6019 117.185 100.251C117.363 101.12 117.855 101.506 118.577 101.346C119.665 101.141 121.155 99.3313 122.972 95.9243L123.498 98.4575Z" fill="black"/>
<path d="M22.1477 87.0711C22.9151 86.9793 23.4627 86.2828 23.3709 85.5154C23.2791 84.7481 22.5826 84.2004 21.8152 84.2922C21.0478 84.3841 20.5002 85.0806 20.592 85.8479C20.6839 86.6153 21.3804 87.1629 22.1477 87.0711Z" fill="black"/>
<path d="M124.803 70.931C125.57 70.8391 126.118 70.1426 126.026 69.3753C125.934 68.6079 125.238 68.0603 124.47 68.1521C123.703 68.2439 123.155 68.9404 123.247 69.7078C123.339 70.4752 124.036 71.0228 124.803 70.931Z" fill="black"/>
</g>
<defs>
<filter id="filter0_d" x="-3.69531" y="0.396973" width="155.041" height="155.556" filterUnits="userSpaceOnUse" color-interpolation-filters="sRGB">
<feFlood flood-opacity="0" result="BackgroundImageFix"/>
<feColorMatrix in="SourceAlpha" type="matrix" values="0 0 0 0 0 0 0 0 0 0 0 0 0 0 0 0 0 0 127 0" result="hardAlpha"/>
<feOffset dy="4"/>
<feGaussianBlur stdDeviation="2"/>
<feComposite in2="hardAlpha" operator="out"/>
<feColorMatrix type="matrix" values="0 0 0 0 0 0 0 0 0 0 0 0 0 0 0 0 0 0 0.25 0"/>
<feBlend mode="normal" in2="BackgroundImageFix" result="effect1_dropShadow"/>
<feBlend mode="normal" in="SourceGraphic" in2="effect1_dropShadow" result="shape"/>
</filter>
<clipPath id="clip0">
<rect width="132.201" height="132.79" fill="white" transform="translate(0.304688 16.1035) rotate(-6.82335)"/>
</clipPath>
</defs>
</svg>
