<svg width="118" height="117" viewBox="0 0 118 117" fill="none" xmlns="http://www.w3.org/2000/svg">
<g clip-path="url(#clip0)">
<path d="M110.47 32.7388C106.7 32.7388 103.615 35.7974 103.615 39.5356V43.8856V45.0185V67.1083H86.0874C82.3169 67.1083 79.2319 70.1669 79.2319 73.9052V77.3036V78.4364V105.964H82.6597V95.995H113.898V105.964H117.325V78.4364V77.3036V32.7388H110.47ZM113.898 92.5966H82.6597V80.7021H113.898V92.5966ZM82.6597 77.3036V73.9052C82.6597 72.0247 84.1907 70.5067 86.0874 70.5067H107.042V67.1083V45.0185V43.8856V39.5356C107.042 37.6552 108.573 36.1372 110.47 36.1372H113.898V77.3036H82.6597Z" fill="white"/>
<path d="M31.5633 67.1083H14.0361V51.8153V48.4169V39.5356C14.0361 35.7974 10.9512 32.7388 7.18066 32.7388H0.325195V77.3036V77.9833V105.964H3.75293V95.995H34.991V105.964H38.4188V77.3036V73.9052C38.4188 70.1669 35.3338 67.1083 31.5633 67.1083ZM34.991 92.5966H3.75293V80.7021H34.991V92.5966ZM34.991 77.3036H3.75293V36.1372H7.18066C9.07734 36.1372 10.6084 37.6552 10.6084 39.5356V48.4169V51.8153V67.1083V70.5067H31.5633C33.46 70.5067 34.991 72.0247 34.991 73.9052V77.3036Z" fill="white"/>
<path d="M65.6807 99.167V62.0107C65.6807 60.1303 67.2117 58.6123 69.1084 58.6123H96.7588V45.0186H61.6816H60.5391H20.8916V58.6123H48.542C50.4387 58.6123 51.9697 60.1303 51.9697 62.0107V99.167C51.9697 101.047 50.4387 102.565 48.542 102.565H41.6865V105.964H48.542H69.1084H75.9639V102.565H69.1084C67.2117 102.565 65.6807 101.047 65.6807 99.167ZM24.3193 55.2139V48.417H60.5391H61.6816H93.3311V55.2139H24.3193ZM63.167 102.565H54.4834C55.0775 101.569 55.3975 100.413 55.3975 99.167V62.0107C55.3975 60.7646 55.0547 59.6092 54.4834 58.6123H63.167C62.5729 59.6092 62.2529 60.7646 62.2529 62.0107V99.167C62.2529 100.413 62.5957 101.569 63.167 102.565Z" fill="white"/>
<path d="M85.2188 38.2216V38.1763H80.0086C79.7344 34.8458 78.6832 31.6513 76.9236 28.7966L76.9008 28.8192C76.2381 27.7771 75.5068 26.7802 74.6842 25.8739L74.7299 25.8513C71.0279 21.7278 65.9092 19.1903 60.4248 18.7599V15.3388H63.8525V11.9403V11.895H53.5693V15.2935V15.3388H56.9971V18.7599C46.5768 19.5755 38.2359 27.845 37.4133 38.1763H32.2031V38.2216V41.5747V41.62H85.2188V38.2216ZM40.8639 38.1763C41.1381 35.5028 42.0064 32.92 43.4232 30.6317H43.4004C43.9488 29.7481 44.5658 28.9099 45.2514 28.1395L45.2742 28.1622C48.6791 24.356 53.5693 22.1583 58.7109 22.1583C68.0115 22.1583 75.6668 29.2044 76.558 38.1989H40.8639V38.1763Z" fill="white"/>
<path d="M60.6533 25.6699L60.1963 29.0457C63.4412 29.4762 66.3205 31.2887 68.0801 34.0527L70.9822 32.2402C68.6514 28.6152 64.9037 26.2137 60.6533 25.6699Z" fill="white"/>
<path d="M52.7241 26.8029L54.1409 29.9068C55.1235 29.4764 56.1519 29.1818 57.2259 29.0232L56.7688 25.6475C55.3749 25.8514 54.0038 26.2365 52.7241 26.8029Z" fill="white"/>
</g>
<defs>
<clipPath id="clip0">
<rect width="117" height="116" fill="white" transform="translate(0.325195 0.952148)"/>
</clipPath>
</defs>
</svg>
