<svg width="113" height="113" viewBox="0 0 113 113" fill="none" xmlns="http://www.w3.org/2000/svg">
<g clip-path="url(#clip0)">
<path d="M56.5002 98.3434C59.1896 98.3434 61.3697 96.1632 61.3697 93.4738C61.3697 90.7844 59.1896 88.6042 56.5002 88.6042C53.8108 88.6042 51.6306 90.7844 51.6306 93.4738C51.6306 96.1632 53.8108 98.3434 56.5002 98.3434Z" fill="white"/>
<path d="M58.2213 65.6049L67.9605 55.8658C68.9125 54.9138 68.9125 53.375 67.9605 52.423C67.0085 51.471 65.4697 51.471 64.5177 52.423L56.4999 60.4407L48.4822 52.423C47.5302 51.471 45.9914 51.471 45.0394 52.423C44.5646 52.8978 44.326 53.5211 44.326 54.1444C44.326 54.7677 44.5646 55.391 45.0394 55.8658L54.7786 65.6049C55.7306 66.5569 57.2693 66.5569 58.2213 65.6049Z" fill="white"/>
<path d="M54.0654 39.5032L54.0654 58.9815C54.0654 60.3255 55.1562 61.4163 56.5002 61.4163C57.8442 61.4163 58.935 60.3255 58.935 58.9815L58.935 39.5032C58.935 38.1592 57.8442 37.0684 56.5002 37.0684C55.1562 37.0684 54.0654 38.1592 54.0654 39.5032Z" fill="white"/>
<path d="M75.9782 69.1262H37.0217C35.6777 69.1262 34.5869 70.217 34.5869 71.561C34.5869 72.905 35.6777 73.9957 37.0217 73.9957H75.9782C77.3222 73.9957 78.413 72.905 78.413 71.561C78.413 70.217 77.3222 69.1262 75.9782 69.1262Z" fill="white"/>
<path d="M80.8381 0.952148C80.3877 0.952148 32.1522 0.952148 32.1522 0.952148C32.1522 0.952148 32.1522 0.952148 32.1497 0.952148C28.8993 0.952148 25.8437 2.21824 23.5452 4.51667C21.2468 6.8151 19.9783 9.87563 19.9783 13.1261V17.9908C19.9783 17.9932 19.9783 17.9932 19.9783 17.9956C19.9783 17.9981 19.9783 17.9981 19.9783 18.0005V100.778C19.9783 107.491 25.4395 112.952 32.1522 112.952H80.8478C87.5605 112.952 93.0217 107.491 93.0217 100.778V13.1261C93.0217 6.41337 87.5605 0.952148 80.8381 0.952148ZM24.8478 13.1261C24.8478 11.1758 25.6075 9.33997 26.988 7.96189C28.3661 6.5838 30.1995 5.82171 32.1497 5.82171H56.4976C72.6986 5.82171 78.5494 5.82171 80.8454 5.63423V5.82171C84.8725 5.82171 88.1497 9.09893 88.1497 13.1261V15.5608H24.8478V13.1261ZM88.1522 100.778C88.1522 104.805 84.875 108.083 80.8478 108.083H32.1522C28.1251 108.083 24.8478 104.805 24.8478 100.778V20.4304H88.1522V100.778Z" fill="white"/>
</g>
<defs>
<clipPath id="clip0">
<rect width="112" height="112" fill="white" transform="translate(0.5 0.952148)"/>
</clipPath>
</defs>
</svg>
