<svg width="117" height="117" viewBox="0 0 117 117" fill="none" xmlns="http://www.w3.org/2000/svg">
<g clip-path="url(#clip0)">
<path d="M38.5105 42.0648C37.3863 42.0648 36.4714 41.1452 36.4714 40.0151C36.4714 39.0767 35.7106 38.3159 34.7722 38.3159C33.8338 38.3159 33.073 39.0767 33.073 40.0151C33.073 43.0191 35.5122 45.4632 38.5105 45.4632C41.5088 45.4632 43.948 43.0191 43.948 40.0151V39.9487C43.948 36.9447 41.5088 34.5008 38.5105 34.5008C37.3863 34.5008 36.4714 33.5814 36.4714 32.4513V32.3849C36.4714 31.2548 37.3863 30.3352 38.5105 30.3352C39.6347 30.3352 40.5496 31.2548 40.5496 32.3849C40.5496 33.3233 41.3104 34.0841 42.2488 34.0841C43.1872 34.0841 43.948 33.3233 43.948 32.3849C43.948 29.3809 41.5088 26.9368 38.5105 26.9368C35.5122 26.9368 33.073 29.3809 33.073 32.3849V32.4513C33.073 35.4553 35.5122 37.8992 38.5105 37.8992C39.6347 37.8992 40.5496 38.8186 40.5496 39.9487V40.0151C40.5496 41.1452 39.6347 42.0648 38.5105 42.0648Z" fill="white"/>
<path d="M18.1648 33.3285V31.5074C18.1648 28.9872 16.118 26.9368 13.6023 26.9368H10.0425C8.5248 26.9368 7.29027 28.1729 7.29027 29.6922V36.1937C7.29027 36.1959 7.29004 36.198 7.29004 36.2002V43.7642C7.29004 44.7027 8.05084 45.4635 8.98926 45.4635C9.92768 45.4635 10.6885 44.7027 10.6885 43.7642V37.8995H12.1276L14.064 44.2593C14.3375 45.1572 15.287 45.6631 16.1844 45.3898C17.0821 45.1164 17.5884 44.1671 17.315 43.2694L15.5455 37.4581C17.0907 36.7249 18.1648 35.1519 18.1648 33.3285ZM14.7664 33.3285C14.7664 33.9749 14.2441 34.5008 13.6023 34.5008H13.4034C13.3984 34.5008 13.3936 34.5008 13.3886 34.5008H10.6885V30.3352H13.6023C14.2441 30.3352 14.7664 30.8611 14.7664 31.5074V33.3285Z" fill="white"/>
<path d="M22.1545 45.463H28.9514C29.8898 45.463 30.6506 44.7022 30.6506 43.7638C30.6506 42.8253 29.8898 42.0645 28.9514 42.0645H23.8538V39.0134H28.9514C29.8898 39.0134 30.6506 38.2526 30.6506 37.3142C30.6506 36.3758 29.8898 35.615 28.9514 35.615H23.8538V30.3347H28.9514C29.8898 30.3347 30.6506 29.5739 30.6506 28.6355C30.6506 27.6971 29.8898 26.9363 28.9514 26.9363H22.1545C21.2161 26.9363 20.4553 27.6971 20.4553 28.6355V43.7635C20.4553 44.7022 21.2161 45.463 22.1545 45.463Z" fill="white"/>
<path d="M55.2012 30.3347C56.1396 30.3347 56.9004 29.5739 56.9004 28.6355C56.9004 27.6971 56.1396 26.9363 55.2012 26.9363H48.4043C47.4659 26.9363 46.7051 27.6971 46.7051 28.6355V43.7635C46.7051 44.702 47.4659 45.4627 48.4043 45.4627H55.2012C56.1396 45.4627 56.9004 44.702 56.9004 43.7635C56.9004 42.8251 56.1396 42.0643 55.2012 42.0643H50.1035V39.0132H55.2012C56.1396 39.0132 56.9004 38.2524 56.9004 37.314C56.9004 36.3756 56.1396 35.6148 55.2012 35.6148H50.1035V30.3345H55.2012V30.3347Z" fill="white"/>
<path d="M70.2007 33.3285V31.5074C70.2007 28.9872 68.1539 26.9368 65.6382 26.9368H62.0784C60.5607 26.9368 59.3262 28.1729 59.3262 29.6922V36.1937C59.3262 36.1959 59.3259 36.198 59.3259 36.2002V43.7642C59.3259 44.7027 60.0867 45.4635 61.0251 45.4635C61.9636 45.4635 62.7244 44.7027 62.7244 43.7642V37.8995H64.1635L66.0999 44.2593C66.3734 45.1572 67.3229 45.6631 68.2203 45.3898C69.118 45.1164 69.6243 44.1671 69.3509 43.2694L67.5814 37.4581C69.1268 36.7249 70.2007 35.1519 70.2007 33.3285ZM66.8023 33.3285C66.8023 33.9749 66.28 34.5008 65.6382 34.5008C65.0895 34.5008 67.0359 34.5008 62.7244 34.5008V30.3352H65.6382C66.28 30.3352 66.8023 30.8611 66.8023 31.5074V33.3285Z" fill="white"/>
<path d="M78.0359 45.4633C78.7736 45.4633 79.4272 44.9871 79.6533 44.285L84.5244 29.1569C84.8122 28.2636 84.3212 27.3064 83.4279 27.0187C82.5341 26.7307 81.5773 27.2219 81.2896 28.1152L78.0359 38.2201L74.7822 28.1152C74.4945 27.2221 73.5382 26.7314 72.6439 27.0187C71.7506 27.3064 71.2596 28.2636 71.5474 29.1569L76.4185 44.285C76.6446 44.9871 77.298 45.4633 78.0359 45.4633Z" fill="white"/>
<path d="M95.0095 30.3347C95.9479 30.3347 96.7087 29.5739 96.7087 28.6355C96.7087 27.6971 95.9479 26.9363 95.0095 26.9363H88.2126C87.2742 26.9363 86.5134 27.6971 86.5134 28.6355V43.7635C86.5134 44.702 87.2742 45.4627 88.2126 45.4627H95.0095C95.9479 45.4627 96.7087 44.702 96.7087 43.7635C96.7087 42.8251 95.9479 42.0643 95.0095 42.0643H89.9119V39.0132H95.0095C95.9479 39.0132 96.7087 38.2524 96.7087 37.314C96.7087 36.3756 95.9479 35.6148 95.0095 35.6148H89.9119V30.3345H95.0095V30.3347Z" fill="white"/>
<path d="M110.036 36.7489V35.6503C110.036 30.8454 106.127 26.9363 101.322 26.9363C100.13 26.9363 99.1606 27.9057 99.1606 29.0975V43.302C99.1606 44.4935 100.13 45.463 101.322 45.463C106.127 45.463 110.036 41.5539 110.036 36.7489ZM102.559 30.4802C104.895 31.0393 106.637 33.1452 106.637 35.6503V36.7489C106.637 39.254 104.895 41.3599 102.559 41.9191V30.4802Z" fill="white"/>
<path d="M109.299 6.78638L15.0493 6.78638C14.1109 6.78638 13.3501 7.54717 13.3501 8.4856C13.3501 9.42402 14.1109 10.1848 15.0493 10.1848H109.299C111.485 10.1848 113.264 11.9636 113.264 14.1497V58.0459C113.264 58.9843 114.025 59.7451 114.963 59.7451C115.902 59.7451 116.663 58.9843 116.663 58.0459V14.1497C116.663 10.0897 113.359 6.78638 109.299 6.78638Z" fill="white"/>
<path d="M114.963 53.5634C114.025 53.5634 113.264 54.3242 113.264 55.2626V58.2303C113.264 60.4164 111.485 62.1952 109.299 62.1952H74.4087V54.6803C74.4087 52.7439 72.8334 51.1686 70.897 51.1686H45.0688C43.1324 51.1686 41.5571 52.7439 41.5571 54.6803V62.1952H8.02588C5.83978 62.1952 4.06104 60.4164 4.06104 58.2303V14.1497C4.06104 11.9636 5.83978 10.1848 8.02588 10.1848H15.2759C16.2143 10.1848 16.9751 9.42402 16.9751 8.4856C16.9751 7.54717 16.2143 6.78638 15.2759 6.78638H8.02588C3.96588 6.78638 0.662598 10.0897 0.662598 14.1497V58.2303C0.662598 62.2903 3.96588 65.5936 8.02588 65.5936H41.5571V70.3131C41.5571 72.2496 43.1324 73.8249 45.0688 73.8249H52.8853V99.7898H42.6899C39.5668 99.7898 37.0259 102.331 37.0259 105.454C37.0259 108.577 39.5668 111.118 42.6899 111.118H73.2759C76.399 111.118 78.9399 108.577 78.9399 105.454C78.9399 102.331 76.399 99.7898 73.2759 99.7898H63.0806V73.8249H70.897C72.8334 73.8249 74.4087 72.2496 74.4087 70.3131V65.5936H109.299C113.359 65.5936 116.663 62.2903 116.663 58.2303V55.2626C116.663 54.3242 115.902 53.5634 114.963 53.5634ZM73.2759 103.188C74.5251 103.188 75.5415 104.205 75.5415 105.454C75.5415 106.703 74.5251 107.719 73.2759 107.719H42.6899C41.4407 107.719 40.4243 106.703 40.4243 105.454C40.4243 104.205 41.4407 103.188 42.6899 103.188H73.2759ZM56.2837 99.7898V73.8249H59.6821V99.7898H56.2837ZM71.0103 63.8944V70.3131C71.0103 70.3757 70.9595 70.4264 70.897 70.4264C43.378 70.4264 44.9556 70.4901 44.9556 70.3131V63.8944V54.6803C44.9556 54.6178 45.0063 54.567 45.0688 54.567H70.897C70.9595 54.567 71.0103 54.6178 71.0103 54.6803V63.8944Z" fill="white"/>
</g>
<defs>
<clipPath id="clip0">
<rect width="116" height="116" fill="white" transform="translate(0.662598 0.952148)"/>
</clipPath>
</defs>
</svg>
