<svg width="55" height="53" viewBox="0 0 55 53" fill="none" xmlns="http://www.w3.org/2000/svg">
<path d="M27.2619 52.966C42.3182 52.966 54.5238 41.1091 54.5238 26.483C54.5238 11.8568 42.3182 0 27.2619 0C12.2056 0 0 11.8568 0 26.483C0 41.1091 12.2056 52.966 27.2619 52.966Z" fill="#FAFAFA"/>
<g clip-path="url(#clip0)">
<path d="M18.0825 27.3852C18.0825 32.6346 22.3532 36.9053 27.6026 36.9053C32.852 36.9053 37.1227 32.6346 37.1227 27.3852C37.1227 22.1358 32.852 17.8651 27.6026 17.8651C22.3532 17.8651 18.0825 22.1358 18.0825 27.3852ZM27.6026 18.7852C32.3447 18.7852 36.2026 22.6432 36.2026 27.3852C36.2026 32.1272 32.3447 35.9852 27.6026 35.9852C22.8605 35.9852 19.0026 32.1272 19.0026 27.3852C19.0026 22.6431 22.8605 18.7852 27.6026 18.7852Z" fill="#B12116"/>
<path d="M17.2435 37.0323L16.816 27.8365C16.7983 27.5053 16.6162 27.2208 16.3519 27.0586V21.7264H16.385C17.3952 21.7264 18.217 20.9046 18.217 19.8945C18.217 19.2609 18.217 14.71 18.217 14.0769C18.217 13.8229 18.0111 13.6169 17.7569 13.6169C17.5028 13.6169 17.2969 13.8229 17.2969 14.0769V18.8742H16.3519V14.0769C16.3519 13.8229 16.146 13.6169 15.8919 13.6169C15.6377 13.6169 15.4318 13.8229 15.4318 14.0769V18.8742H14.5623V14.0769C14.5623 13.8229 14.3564 13.6169 14.1023 13.6169C13.8482 13.6169 13.6422 13.8229 13.6422 14.0769V18.8742H12.6972V14.0769C12.6972 13.8229 12.4913 13.6169 12.2371 13.6169C11.983 13.6169 11.7771 13.8229 11.7771 14.0769V19.8945C11.7771 20.9046 12.5989 21.7264 13.6091 21.7264H13.6422V27.0588C13.3778 27.2212 13.1958 27.5065 13.178 27.8397L12.7507 37.0308C12.6821 38.3205 13.7066 39.3999 14.9971 39.3999C16.2874 39.3998 17.3112 38.3209 17.2435 37.0323ZM12.6972 19.8945V19.7942H17.2969V19.8945C17.2969 20.3973 16.8878 20.8063 16.385 20.8063C15.7626 20.8063 14.1961 20.8063 13.6091 20.8063C13.1063 20.8063 12.6972 20.3973 12.6972 19.8945ZM15.4318 21.7264V26.9147H14.5623V21.7264H15.4318ZM14.9971 38.4797C14.2374 38.4797 13.6287 37.846 13.6696 37.0766L14.097 27.8855C14.0984 27.8571 14.1219 27.8348 14.1503 27.8348H14.1506L15.8458 27.8352C15.8733 27.8363 15.8957 27.8578 15.897 27.8824L16.3244 37.0766C16.3245 37.0777 16.3245 37.0787 16.3246 37.0797C16.3652 37.8419 15.7597 38.4797 14.9971 38.4797Z" fill="#B12116"/>
<path d="M26.3247 34.4053C26.5747 34.4505 26.8141 34.2845 26.8593 34.0345C26.9046 33.7845 26.7385 33.5452 26.4885 33.4999C23.5333 32.9652 21.3884 30.3936 21.3884 27.3852C21.3884 23.9585 24.1761 21.1707 27.6028 21.1707C31.0294 21.1707 33.8172 23.9585 33.8172 27.3852C33.8172 30.4587 31.5263 33.1032 28.4886 33.5365C28.2369 33.5724 28.0622 33.8054 28.0981 34.0569C28.1308 34.2864 28.3276 34.4521 28.5529 34.4521C28.5745 34.4521 28.5964 34.4505 28.6184 34.4474C30.3025 34.2072 31.8497 33.3663 32.975 32.0796C34.1113 30.7804 34.7372 29.1132 34.7372 27.3852C34.7372 23.4512 31.5367 20.2506 27.6028 20.2506C23.6688 20.2506 20.4683 23.4512 20.4683 27.3852C20.4683 30.8389 22.9313 33.7913 26.3247 34.4053Z" fill="#B12116"/>
<path d="M43.0292 34.2062C43.0157 33.9525 42.7979 33.7576 42.5454 33.7713C42.2917 33.7848 42.0969 34.0013 42.1104 34.2551L42.2606 37.0796C42.3012 37.8418 41.6957 38.4797 40.9331 38.4797C40.1698 38.4797 39.565 37.8412 39.6054 37.0796L40.0329 29.0427C40.0344 29.0143 40.0579 28.992 40.0864 28.992L41.7816 28.9924C41.8091 28.9934 41.8317 29.0149 41.8332 29.0427L41.9962 32.1082C42.0097 32.362 42.2265 32.5574 42.48 32.5431C42.7337 32.5296 42.9285 32.313 42.915 32.0593L42.752 28.9937C42.7343 28.6625 42.5522 28.378 42.2879 28.2158V26.7972C42.7309 26.6838 43.06 26.2824 43.06 25.8045V14.0906C43.06 13.7193 42.8791 13.3693 42.5762 13.1545C42.2732 12.9397 41.8831 12.8847 41.5326 13.0076C39.1747 13.8342 37.5903 16.0684 37.5903 18.5671V24.4046C37.5903 24.7757 37.7924 25.119 38.1177 25.3005C38.4448 25.4832 38.6893 25.7787 38.8065 26.1328C38.9234 26.4858 39.221 26.74 39.5782 26.8101V28.2158C39.3138 28.3781 39.1317 28.6626 39.1141 28.9938L38.6866 37.0307C38.6179 38.3205 39.6426 39.3997 40.933 39.3997C42.2245 39.3997 43.2479 38.3193 43.1793 37.0306L43.0292 34.2062ZM40.4984 26.8303H41.3679V28.0719H40.4984V26.8303ZM38.5663 24.4972C38.5319 24.4781 38.5105 24.4425 38.5105 24.4047V18.5672C38.5105 16.4587 39.8474 14.5735 41.8371 13.876C41.9335 13.8423 42.0082 13.8797 42.044 13.9051C42.0798 13.9305 42.1399 13.9883 42.1399 14.0906V25.8046C42.1399 25.8628 42.0926 25.9102 42.0342 25.9102H41.8279H40.0383H39.778C39.7333 25.9102 39.693 25.8829 39.6801 25.8438C39.4906 25.2706 39.0949 24.7924 38.5663 24.4972Z" fill="#B12116"/>
</g>
<defs>
<clipPath id="clip0">
<rect width="31.4057" height="31.4057" fill="white" transform="translate(11.7771 10.4686)"/>
</clipPath>
</defs>
</svg>
